<svg width="30" height="30" viewBox="0 0 24 24" fill="none" xmlns="http://www.w3.org/2000/svg">
<path d="M12 11L11.9926 4M11.9926 4L9.49255 7M11.9926 4L14.4926 7" stroke="#363636" stroke-linecap="round" stroke-linejoin="round"/>
<path d="M8.42732 16.8594V16.8094H8.37732H6.21716H6.16716V16.8594V17.5898V17.6398H6.21716H7.35076V18.6983C7.30852 18.7399 7.25027 18.7847 7.17488 18.8327C7.09731 18.8811 6.98931 18.9251 6.84894 18.9634C6.7113 18.9984 6.53239 19.0164 6.31091 19.0164C6.08801 19.0164 5.88961 18.9759 5.71478 18.8961C5.5402 18.8137 5.39161 18.6927 5.26874 18.5323C5.14825 18.3716 5.05439 18.1732 4.98804 17.936C4.92436 17.699 4.89216 17.4262 4.89216 17.1172V16.7148C4.89216 16.4105 4.92054 16.1411 4.97673 15.9062C5.03291 15.6712 5.11544 15.474 5.22336 15.3133C5.33339 15.1533 5.47022 15.0329 5.63406 14.951C5.79785 14.8691 5.98917 14.8273 6.20935 14.8273C6.4671 14.8273 6.67145 14.8721 6.82569 14.9578L6.82569 14.9578L6.82652 14.9582C6.98523 15.0425 7.10568 15.1584 7.18929 15.3059L7.18928 15.3059L7.1896 15.3064C7.2773 15.4568 7.33661 15.6279 7.36699 15.8203L7.37366 15.8625H7.41638H8.37732H8.43401L8.42693 15.8063C8.38187 15.4484 8.27432 15.1291 8.10361 14.849C7.93174 14.567 7.68751 14.3473 7.37257 14.1898C7.05878 14.0289 6.66497 13.95 6.19373 13.95C5.82356 13.95 5.48998 14.0121 5.19386 14.1375C4.90034 14.2603 4.64925 14.4419 4.4411 14.6821C4.23297 14.9222 4.07369 15.2148 3.96255 15.5588L3.96248 15.5591C3.85386 15.9008 3.79998 16.2889 3.79998 16.7227V17.1172C3.79998 17.5539 3.85917 17.945 3.97851 18.2898L3.97855 18.2899C4.09768 18.6314 4.26628 18.9226 4.48489 19.1626L4.48509 19.1628C4.70621 19.4026 4.96877 19.5851 5.27232 19.7103L5.27267 19.7104C5.57614 19.8329 5.9094 19.8938 6.27185 19.8938C6.69435 19.8938 7.05022 19.8479 7.33805 19.7546C7.62251 19.6624 7.85315 19.5522 8.02812 19.423L8.02822 19.423C8.20192 19.294 8.33242 19.1735 8.4172 19.0614L8.42732 19.048V19.0312V16.8594ZM10.9367 18.1017L10.0903 14.0679L10.082 14.0281H10.0414H9.06873H9.00583L9.02001 14.0894L10.3364 19.7769L10.3454 19.8156H10.3851H10.6641H10.7211H11.0414H11.0946H11.3383H11.3767L11.3866 19.7785L12.4346 15.8399L13.4657 19.7783L13.4754 19.8156H13.514H13.7574H13.8109H14.1312H14.1881H14.4672H14.5069L14.5159 19.7769L15.8323 14.0894L15.8465 14.0281H15.7836H14.807H14.7663L14.7581 14.068L13.9191 18.1071L12.8945 14.0658L12.885 14.0281H12.8461H12.6686H12.6156H12.2601H12.2073H12.0219H11.9831L11.9734 14.0657L10.9367 18.1017ZM17.1906 14.0281H16.5101H16.4601V14.0781V19.7656V19.8156H16.5101H17.4906H17.5406V19.7656V17.3937H19.8109H19.8609V17.3438V16.5664V16.5164H19.8109H17.5406V14.9094H20.1351H20.1851V14.8594V14.0781V14.0281H20.1351H17.5406H17.4906H17.2406H17.1906Z" fill="#363636" stroke="#363636" stroke-width="0.1"/>
</svg>
