<svg width="24" height="24" viewBox="0 0 24 24" fill="none" xmlns="http://www.w3.org/2000/svg">
<path d="M5.00019 11.4986C4.84284 11.4986 4.73427 11.5462 4.64075 11.6392C4.54782 11.7327 4.50019 11.8413 4.50019 11.9986C4.50019 12.1563 4.54799 12.2643 4.64075 12.3571C4.73453 12.4508 4.84304 12.4986 5.00019 12.4986H16.1752H17.3823L16.5287 13.3522L11.6287 18.2522C11.5443 18.3366 11.4922 18.4447 11.487 18.6134C11.483 18.7587 11.5255 18.8497 11.6131 18.93L11.6291 18.9447L11.6438 18.9608C11.7278 19.0524 11.825 19.0986 11.9752 19.0986C12.1262 19.0986 12.2406 19.0511 12.3466 18.9451L18.9466 12.3451C19.0014 12.2903 19.0285 12.2434 19.0424 12.2053C19.063 12.1466 19.0752 12.0789 19.0752 11.9986C19.0752 11.9184 19.063 11.8507 19.0424 11.7919C19.0285 11.7538 19.0014 11.7069 18.9466 11.6522L19.3002 11.2986L18.9466 11.6522L12.3466 5.05217C12.2591 4.96462 12.1537 4.91542 11.9981 4.91039C11.8647 4.90665 11.7592 4.94671 11.6537 5.05217L11.6461 5.05985L11.6381 5.06719C11.5389 5.15806 11.4916 5.25904 11.487 5.40068C11.4832 5.53405 11.5233 5.63959 11.6287 5.74506L16.5287 10.6451L17.3823 11.4986H16.1752H5.00019Z" fill="#363636" stroke="#363636"/>
</svg>
