<svg width="24" height="24" viewBox="0 0 24 24" fill="none" xmlns="http://www.w3.org/2000/svg">
<path d="M19.7368 5.81316L18.1053 7.19474C19.2632 8.68684 19.8947 10.5658 19.8947 12.4447C19.8947 17.0316 16.3684 20.7342 12 20.7342C11.5263 20.7342 11 20.6789 10.5263 20.5684L10.1579 22.7237C10.7895 22.8342 11.4211 22.8895 12 22.8895C17.5263 22.8895 22 18.1921 22 12.3895C22 10.0684 21.2105 7.6921 19.7368 5.81316Z" fill="#585858"/>
<path d="M15.6842 3.65789L21.9474 4.54211L16.7895 9.95789L15.6842 3.65789Z" fill="#585858"/>
<path d="M12 2C6.47368 2 2 6.69737 2 12.5C2 15.0421 2.84211 17.4737 4.42105 19.3526L6 17.9158C4.78947 16.4237 4.10526 14.4895 4.10526 12.5C4.10526 7.91316 7.63158 4.21053 12 4.21053C12.4737 4.21053 13 4.26579 13.4737 4.37632L13.8421 2.22105C13.2632 2.05526 12.6316 2 12 2Z" fill="#585858"/>
<path d="M8.31579 21.3421L2.05263 20.4579L7.21053 15.0421L8.31579 21.3421Z" fill="#585858"/>
<path d="M10.3598 11.9723C11.6413 11.0618 11.7225 10.2385 11.6366 9.79467C11.3263 9.8605 11.0064 9.81372 10.7309 9.66222C10.4555 9.51071 10.2414 9.26375 10.1246 8.96297C10.0079 8.66218 9.99563 8.32597 10.09 8.01102C10.1844 7.69607 10.3796 7.42164 10.6427 7.234C11.2758 6.78417 12.1229 6.94238 12.539 7.5882C12.8675 8.09786 12.8292 8.75461 12.4857 9.23117L14.5766 12.4758C14.8516 12.397 15.1411 12.4085 15.405 12.5087C15.6688 12.6089 15.8939 12.7928 16.0489 13.0349C16.465 13.6807 16.2899 14.5651 15.6567 15.015C15.0236 15.4648 14.1765 15.3066 13.7604 14.6608C13.4319 14.1511 13.4702 13.4943 13.8137 13.0178L12.4875 10.9597C12.3148 11.4511 11.9444 11.9808 11.2426 12.4794C10.2242 13.2029 10.2207 13.9654 10.3332 14.3902C10.599 14.3307 10.8737 14.3536 11.1229 14.4561C11.372 14.5587 11.5843 14.7363 11.7333 14.9666C12.1494 15.6124 11.9743 16.4968 11.3411 16.9467C10.708 17.3965 9.86093 17.2383 9.44477 16.5925C9.10882 16.0711 9.15366 15.3814 9.52492 14.9134C9.26558 14.2866 8.95616 12.9695 10.3598 11.9723ZM11.6455 8.79019C11.8553 8.64115 11.9141 8.34414 11.7762 8.13016C11.6383 7.91619 11.3539 7.86306 11.1441 8.0121C10.9343 8.16114 10.8755 8.45815 11.0134 8.67212C11.1512 8.8861 11.4357 8.93923 11.6455 8.79019ZM15.1553 14.2369C15.3651 14.0878 15.4239 13.7908 15.286 13.5768C15.1482 13.3629 14.8637 13.3097 14.6539 13.4588C14.4441 13.6078 14.3853 13.9048 14.5232 14.1188C14.6611 14.3328 14.9455 14.3859 15.1553 14.2369ZM10.8397 16.1686C11.0495 16.0195 11.1083 15.7225 10.9704 15.5085C10.8326 15.2946 10.5481 15.2414 10.3383 15.3905C10.1285 15.5395 10.0697 15.8365 10.2076 16.0505C10.3455 16.2645 10.6299 16.3176 10.8397 16.1686Z" fill="#363636"/>
</svg>

