<?xml version="1.0" encoding="UTF-8"?>
<svg xmlns="http://www.w3.org/2000/svg" xmlns:xlink="http://www.w3.org/1999/xlink" width="25px" height="30px" viewBox="0 0 25 29" version="1.1">
<g id="surface1">
<path style=" stroke:none;fill-rule:nonzero;fill:rgb(0%,0%,0%);fill-opacity:1;" d="M 13.019531 9.542969 C 13.019531 9.402344 12.957031 9.265625 12.84375 9.164062 C 12.730469 9.0625 12.578125 9.007812 12.417969 9.007812 C 12.257812 9.007812 12.105469 9.0625 11.992188 9.164062 C 11.878906 9.265625 11.816406 9.402344 11.816406 9.542969 L 11.816406 13.601562 L 10.433594 12.375 C 10.320312 12.273438 10.167969 12.214844 10.007812 12.214844 C 9.847656 12.214844 9.695312 12.273438 9.582031 12.375 C 9.46875 12.472656 9.40625 12.609375 9.40625 12.753906 C 9.40625 12.894531 9.46875 13.03125 9.582031 13.132812 L 11.992188 15.269531 C 12.046875 15.320312 12.113281 15.359375 12.1875 15.386719 C 12.261719 15.414062 12.339844 15.425781 12.417969 15.425781 C 12.496094 15.425781 12.578125 15.414062 12.648438 15.386719 C 12.722656 15.359375 12.789062 15.320312 12.84375 15.269531 L 15.257812 13.132812 C 15.367188 13.03125 15.433594 12.894531 15.433594 12.753906 C 15.433594 12.609375 15.367188 12.472656 15.257812 12.375 C 15.144531 12.273438 14.988281 12.214844 14.828125 12.214844 C 14.667969 12.214844 14.515625 12.273438 14.402344 12.375 L 13.019531 13.601562 Z M 13.019531 9.542969 "/>
<path style=" stroke:none;fill-rule:nonzero;fill:rgb(0%,0%,0%);fill-opacity:1;" d="M 24.71875 25.414062 L 24.71875 9.0625 C 24.71875 8.683594 24.546875 8.324219 24.242188 8.054688 L 16.03125 0.867188 C 15.726562 0.597656 15.3125 0.449219 14.878906 0.449219 L 4.355469 0.449219 C 3.273438 0.449219 2.238281 0.824219 1.472656 1.492188 C 0.710938 2.160156 0.28125 3.070312 0.28125 4.015625 L 0.28125 25.414062 C 0.28125 26.359375 0.710938 27.265625 1.472656 27.9375 C 2.238281 28.605469 3.273438 28.980469 4.355469 28.980469 L 20.644531 28.980469 C 21.726562 28.980469 22.761719 28.605469 23.527344 27.9375 C 24.289062 27.265625 24.71875 26.359375 24.71875 25.414062 Z M 15.554688 5.796875 C 15.554688 6.507812 15.875 7.1875 16.449219 7.6875 C 17.023438 8.191406 17.800781 8.472656 18.609375 8.472656 L 22.03125 8.472656 C 22.390625 8.472656 22.683594 8.726562 22.683594 9.042969 L 22.683594 25.414062 C 22.683594 25.886719 22.46875 26.339844 22.085938 26.675781 C 21.703125 27.007812 21.1875 27.195312 20.644531 27.195312 L 4.355469 27.195312 C 3.8125 27.195312 3.296875 27.007812 2.914062 26.675781 C 2.53125 26.339844 2.316406 25.886719 2.316406 25.414062 L 2.316406 4.015625 C 2.316406 3.542969 2.53125 3.089844 2.914062 2.753906 C 3.296875 2.417969 3.8125 2.230469 4.355469 2.230469 L 14.902344 2.230469 C 15.261719 2.230469 15.554688 2.488281 15.554688 2.800781 Z M 15.554688 5.796875 "/>
<path style=" stroke:none;fill-rule:nonzero;fill:rgb(0%,0%,0%);fill-opacity:1;" d="M 7.757812 19.742188 C 7.613281 19.496094 7.410156 19.308594 7.148438 19.1875 C 6.886719 19.058594 6.585938 18.996094 6.242188 18.996094 C 5.867188 18.996094 5.535156 19.066406 5.242188 19.214844 C 4.949219 19.363281 4.71875 19.570312 4.550781 19.84375 C 4.386719 20.113281 4.304688 20.429688 4.304688 20.785156 C 4.304688 21.140625 4.386719 21.457031 4.550781 21.734375 C 4.71875 22.003906 4.949219 22.214844 5.242188 22.359375 C 5.535156 22.507812 5.867188 22.582031 6.242188 22.582031 C 6.75 22.582031 7.160156 22.457031 7.472656 22.210938 C 7.789062 21.964844 7.980469 21.628906 8.050781 21.207031 L 5.925781 21.207031 L 5.925781 20.554688 L 9.046875 20.554688 L 9.046875 21.191406 C 8.984375 21.578125 8.828125 21.929688 8.574219 22.253906 C 8.324219 22.578125 7.996094 22.835938 7.585938 23.03125 C 7.1875 23.222656 6.738281 23.316406 6.242188 23.316406 C 5.710938 23.316406 5.226562 23.210938 4.785156 22.996094 C 4.34375 22.777344 3.996094 22.476562 3.734375 22.089844 C 3.480469 21.703125 3.351562 21.269531 3.351562 20.785156 C 3.351562 20.300781 3.480469 19.863281 3.734375 19.480469 C 3.996094 19.09375 4.34375 18.792969 4.785156 18.582031 C 5.230469 18.363281 5.714844 18.253906 6.242188 18.253906 C 6.847656 18.253906 7.382812 18.382812 7.847656 18.644531 C 8.320312 18.902344 8.664062 19.269531 8.875 19.742188 Z M 7.757812 19.742188 "/>
<path style=" stroke:none;fill-rule:nonzero;fill:rgb(0%,0%,0%);fill-opacity:1;" d="M 17.335938 18.316406 L 15.65625 23.273438 L 14.605469 23.273438 L 13.414062 19.523438 L 12.152344 23.273438 L 11.109375 23.28125 L 9.503906 18.316406 L 10.492188 18.316406 L 11.664062 22.355469 L 12.933594 18.316406 L 13.976562 18.316406 L 15.160156 22.332031 L 16.339844 18.316406 Z M 17.335938 18.316406 "/>
<path style=" stroke:none;fill-rule:nonzero;fill:rgb(0%,0%,0%);fill-opacity:1;" d="M 21.433594 18.316406 L 21.433594 18.980469 L 19.027344 18.980469 L 19.027344 20.441406 L 20.902344 20.441406 L 20.902344 21.105469 L 19.027344 21.105469 L 19.027344 23.273438 L 18.101562 23.273438 L 18.101562 18.316406 Z M 21.433594 18.316406 "/>
</g>
</svg>
