<svg width="24" height="24" viewBox="0 0 24 24" fill="none" xmlns="http://www.w3.org/2000/svg">
<path d="M15.4431 7.1079L15.7625 6.72319L15.3778 6.40382L13.9342 5.20539C13.935 5.18463 13.9405 5.14923 13.96 5.10281C14.015 4.97175 14.1214 4.88399 14.2082 4.8634L14.2082 4.86344L14.2147 4.8618L19.0388 3.64828L18.7337 8.61328L18.7337 8.61328L18.7333 8.62001C18.7289 8.7124 18.661 8.83442 18.5447 8.91185C18.5033 8.93947 18.4704 8.95096 18.4512 8.95523L17.0122 7.76058L16.6274 7.44121L16.3081 7.82593L6.0595 20.1713C5.86442 20.4063 5.62845 20.5468 5.42395 20.5986C5.21818 20.6508 5.08625 20.6075 5.01556 20.5489C4.94487 20.4902 4.87812 20.3684 4.8915 20.1566C4.9048 19.9461 4.99949 19.6883 5.19457 19.4533L15.4431 7.1079Z" fill="#363636" stroke="#363636"/>
</svg>
