<svg width="24" height="24" viewBox="0 0 24 24" fill="none" xmlns="http://www.w3.org/2000/svg">
<path d="M14.1366 11.1376C14.3054 10.9688 14.4002 10.7399 14.4002 10.5012C14.4002 10.2625 14.3054 10.0336 14.1366 9.8648C13.9678 9.69601 13.7389 9.60119 13.5002 9.60119H11.4002V7.50119C11.4002 7.2625 11.3054 7.03358 11.1366 6.86479C10.9678 6.69601 10.7389 6.60119 10.5002 6.60119C10.2615 6.60119 10.0326 6.69601 9.86382 6.86479C9.69504 7.03358 9.60021 7.2625 9.60021 7.50119V9.60119H7.50021C7.26152 9.60119 7.0326 9.69601 6.86382 9.8648C6.69504 10.0336 6.60021 10.2625 6.60021 10.5012C6.60021 10.7399 6.69504 10.9688 6.86382 11.1376C7.0326 11.3064 7.26152 11.4012 7.50021 11.4012H9.60021V13.5012C9.60021 13.7399 9.69504 13.9688 9.86382 14.1376C10.0326 14.3064 10.2615 14.4012 10.5002 14.4012C10.7389 14.4012 10.9678 14.3064 11.1366 14.1376C11.3054 13.9688 11.4002 13.7399 11.4002 13.5012V11.4012H13.5002C13.7389 11.4012 13.9678 11.3064 14.1366 11.1376ZM21.3449 21.8332C21.4541 21.7879 21.5534 21.7215 21.637 21.6378L21.5308 21.5318L21.6368 21.6379C21.7205 21.5544 21.7869 21.4551 21.8322 21.3458C21.8775 21.2366 21.9008 21.1195 21.9008 21.0012C21.9008 20.8829 21.8775 20.7658 21.8322 20.6565C21.7869 20.5473 21.7206 20.4481 21.6369 20.3645C21.6369 20.3645 21.6369 20.3645 21.6368 20.3644L17.0389 15.7674C18.3661 14.1202 19.0249 12.0317 18.8806 9.91791C18.7332 7.75853 17.7589 5.73912 16.1605 4.27976C14.5621 2.82041 12.4626 2.03347 10.2987 2.08264C8.13487 2.13182 6.07328 3.01333 4.54282 4.54379C3.01235 6.07426 2.13084 8.13585 2.08167 10.2997C2.03249 12.4635 2.81943 14.563 4.27879 16.1615C5.73814 17.7599 7.75756 18.7341 9.91694 18.8816C12.0307 19.0259 14.1193 18.3671 15.7664 17.0399L20.3635 21.6378C20.3635 21.6378 20.3635 21.6379 20.3635 21.6379C20.4471 21.7215 20.5463 21.7879 20.6556 21.8332C20.7648 21.8785 20.8819 21.9018 21.0002 21.9018C21.1185 21.9018 21.2356 21.8785 21.3449 21.8332ZM14.167 15.9889C13.0817 16.7141 11.8057 17.1012 10.5004 17.1012C8.7505 17.0993 7.07285 16.4033 5.8355 15.1659C4.59818 13.9286 3.90218 12.251 3.90021 10.5011C3.90023 9.1958 4.28731 7.91978 5.01251 6.83443C5.73773 5.74906 6.76851 4.90312 7.9745 4.40359C9.1805 3.90405 10.5075 3.77335 11.7878 4.02801C13.0681 4.28267 14.2441 4.91126 15.1671 5.83429C16.0901 6.75731 16.7187 7.93332 16.9734 9.21359C17.2281 10.4939 17.0974 11.8209 16.5978 13.0269C16.0983 14.2329 15.2523 15.2637 14.167 15.9889Z" fill="#363636" stroke="#363636" stroke-width="0.3"/>
</svg>
