<svg width="24" height="24" viewBox="0 0 24 24" fill="none" xmlns="http://www.w3.org/2000/svg">
<path d="M4.75 5C4.75 4.73478 4.85536 4.48043 5.04289 4.29289C5.23043 4.10536 5.48478 4 5.75 4H18.25C18.5152 4 18.7696 4.10536 18.9571 4.29289C19.1446 4.48043 19.25 4.73478 19.25 5V7C19.25 7.26522 19.1446 7.51957 18.9571 7.70711C18.7696 7.89464 18.5152 8 18.25 8C17.9848 8 17.7304 7.89464 17.5429 7.70711C17.3554 7.51957 17.25 7.26522 17.25 7V6H13V18H14C14.2652 18 14.5196 18.1054 14.7071 18.2929C14.8946 18.4804 15 18.7348 15 19C15 19.2652 14.8946 19.5196 14.7071 19.7071C14.5196 19.8946 14.2652 20 14 20H10C9.73478 20 9.48043 19.8946 9.29289 19.7071C9.10536 19.5196 9 19.2652 9 19C9 18.7348 9.10536 18.4804 9.29289 18.2929C9.48043 18.1054 9.73478 18 10 18H11V6H6.75V7C6.75 7.26522 6.64464 7.51957 6.45711 7.70711C6.26957 7.89464 6.01522 8 5.75 8C5.48478 8 5.23043 7.89464 5.04289 7.70711C4.85536 7.51957 4.75 7.26522 4.75 7V5Z" fill="#363636"/>
</svg>
