<svg width="24" height="24" viewBox="0 0 24 24" fill="none" xmlns="http://www.w3.org/2000/svg">
<path d="M3.01277 19.2775L2.66643 19.6239L3.01277 19.2775C2.50374 18.7685 2.21777 18.0781 2.21777 17.3583V6.64397C2.21777 5.9241 2.50374 5.23371 3.01277 4.72468C3.5218 4.21566 4.21219 3.92969 4.93206 3.92969H19.0715C19.7914 3.92969 20.4818 4.21566 20.9908 4.72468C21.4998 5.23371 21.7858 5.9241 21.7858 6.64397V17.3583C21.7858 18.0781 21.4998 18.7685 20.9908 19.2775C20.4818 19.7866 19.7914 20.0725 19.0715 20.0725H4.93206C4.21219 20.0725 3.5218 19.7866 3.01277 19.2775ZM2.50349 6.64397V7.14397H2.50435V17.3583C2.50435 18.0024 2.76021 18.6201 3.21566 19.0755C3.6711 19.531 4.28882 19.7868 4.93292 19.7868H19.0715C19.7156 19.7868 20.3333 19.531 20.7887 19.0755C21.2442 18.6201 21.5001 18.0024 21.5001 17.3583V6.64397C21.5001 5.99988 21.2442 5.38216 20.7887 4.92671C20.3333 4.47127 19.7156 4.2154 19.0715 4.2154H4.93206C4.28796 4.2154 3.67025 4.47127 3.2148 4.92671C2.75935 5.38216 2.50349 5.99988 2.50349 6.64397ZM6.5095 15.2817L6.04756 15.4731L6.5095 15.2817C6.50327 15.2667 6.50006 15.2505 6.50006 15.2343V15.1965C6.50006 15.1281 6.55563 15.0725 6.62406 15.0725H13.0903C13.1588 15.0725 13.2143 15.1281 13.2143 15.1965V15.2343C13.2143 15.2671 13.2013 15.2987 13.178 15.3219C13.1548 15.3452 13.1232 15.3583 13.0903 15.3583H6.62406C6.60778 15.3583 6.59165 15.3551 6.57661 15.3488L6.38527 15.8108L6.57661 15.3488C6.56156 15.3426 6.54789 15.3335 6.53638 15.3219C6.52486 15.3104 6.51573 15.2968 6.5095 15.2817ZM6.53638 8.25172C6.55963 8.22847 6.59117 8.2154 6.62406 8.2154H11.3761C11.4089 8.2154 11.4405 8.22847 11.4637 8.25172C11.487 8.27497 11.5001 8.30651 11.5001 8.3394V8.37712C11.5001 8.41 11.487 8.44154 11.4637 8.4648C11.4405 8.48805 11.4089 8.50112 11.3761 8.50112H6.62406C6.55563 8.50112 6.50006 8.44555 6.50006 8.37712V8.3394C6.50006 8.30651 6.51312 8.27498 6.53638 8.25172L6.18283 7.89817L6.53638 8.25172ZM6.53638 11.6803C6.55963 11.657 6.59117 11.644 6.62406 11.644H15.6618C15.6947 11.644 15.7262 11.657 15.7495 11.6803C15.7727 11.7035 15.7858 11.7351 15.7858 11.768V11.8057C15.7858 11.8386 15.7727 11.8701 15.7495 11.8934C15.7262 11.9166 15.6947 11.9297 15.6618 11.9297H6.62406C6.55563 11.9297 6.50006 11.8741 6.50006 11.8057V11.768C6.50006 11.7351 6.51312 11.7035 6.53638 11.6803Z" fill="#363636" stroke="#363636"/>
</svg>
