<svg width="24" height="24" viewBox="0 0 24 24" fill="none" xmlns="http://www.w3.org/2000/svg">
<path d="M11.5007 21.5H11.5C10.0968 21.5 8.92473 21.0176 7.95355 20.0464C6.98237 19.0753 6.5 17.9032 6.5 16.5V6C6.5 5.03366 6.83824 4.21887 7.52855 3.52855C8.21887 2.83824 9.03366 2.5 10 2.5C10.9663 2.5 11.7811 2.83824 12.4714 3.52855C13.1618 4.21887 13.5 5.03366 13.5 6V13.5H13V6C13 5.17097 12.7082 4.45105 12.1286 3.87145C11.549 3.29185 10.829 3 10 3C9.17097 3 8.45105 3.29185 7.87145 3.87145C7.29185 4.45105 7 5.17097 7 6V16.5C7 17.7337 7.44509 18.8022 8.32145 19.6786C9.1978 20.5549 10.2663 21 11.5 21C12.0391 21 12.553 20.9113 13.0378 20.7305C13.1972 20.671 13.3513 20.6035 13.5 20.5281V21.0761C13.2333 21.1874 12.958 21.2801 12.6738 21.3542C12.3004 21.4516 11.9098 21.5006 11.5007 21.5ZM16.5 18V17.5H16H14C13.8428 17.5 13.7343 17.4522 13.6406 17.3584C13.5468 17.2647 13.4996 17.1569 13.5 17.0012V17C13.5 16.8428 13.5478 16.7343 13.6416 16.6406C13.7353 16.5468 13.8431 16.4996 13.9988 16.5H14H16H16.5V16V14C16.5 13.8428 16.5478 13.7343 16.6416 13.6406C16.7353 13.5468 16.8431 13.4996 16.9988 13.5H17C17.1572 13.5 17.2657 13.5478 17.3594 13.6416C17.4532 13.7353 17.5004 13.8431 17.5 13.9988V14V16V16.5H18H20C20.1572 16.5 20.2657 16.5478 20.3594 16.6416C20.4532 16.7353 20.5004 16.8431 20.5 16.9988V17C20.5 17.1572 20.4522 17.2657 20.3584 17.3594C20.2647 17.4532 20.1569 17.5004 20.0012 17.5H20H18H17.5V18V20C17.5 20.1572 17.4522 20.2657 17.3584 20.3594C17.2647 20.4532 17.1569 20.5004 17.0012 20.5H17C16.8428 20.5 16.7343 20.4522 16.6406 20.3584C16.5468 20.2647 16.4996 20.1569 16.5 20.0012V20V18ZM13 17C13 16.7167 13.096 16.479 13.288 16.287C13.48 16.095 13.7173 15.9993 14 16H15.5H16V15.5V14C16 13.7167 16.096 13.479 16.288 13.287C16.48 13.095 16.7173 12.9993 17 13C17.2833 13 17.521 13.096 17.713 13.288C17.905 13.48 18.0007 13.7173 18 14V15.5V16H18.5H20C20.2833 16 20.521 16.096 20.713 16.288C20.905 16.48 21.0007 16.7173 21 17C21 17.2833 20.904 17.521 20.712 17.713C20.52 17.905 20.2827 18.0007 20 18H18.5H18V18.5V20C18 20.2833 17.904 20.521 17.712 20.713C17.52 20.905 17.2827 21.0007 17 21C16.7167 21 16.479 20.904 16.287 20.712C16.095 20.52 15.9993 20.2827 16 20V18.5V18H15.5L13 17ZM11 17.4449C10.6496 17.3628 10.3459 17.1888 10.0786 16.9214C9.69149 16.5344 9.5 16.071 9.5 15.5V6.75C9.5 6.65438 9.52616 6.60676 9.56572 6.56738C9.60654 6.52675 9.6556 6.50043 9.75077 6.5C9.84588 6.50014 9.89334 6.52626 9.93262 6.56572C9.97327 6.60656 9.99959 6.65564 10 6.7509V15.5C10 15.9095 10.1442 16.2763 10.4344 16.5666C10.6001 16.7322 10.7907 16.8503 11 16.9209V17.4449ZM16 10.5V6.75C16 6.65438 16.0262 6.60676 16.0657 6.56738C16.1065 6.52675 16.1556 6.50043 16.2508 6.5C16.3459 6.50014 16.3933 6.52626 16.4326 6.56572C16.4733 6.60658 16.4996 6.65568 16.5 6.75101V10.5H16Z" fill="#5896C0" stroke="#5896C0"/>
</svg>
