<svg width="30" height="30" viewBox="0 0 30 30" fill="none" xmlns="http://www.w3.org/2000/svg">
<path d="M19.906 15.0913H10.1176C9.84473 15.0804 9.57673 15.017 9.32895 14.9048C9.08116 14.7926 8.85844 14.6337 8.67354 14.4372C8.48864 14.2407 8.34519 14.0105 8.25138 13.7598C8.15758 13.509 8.11527 13.2427 8.12688 12.9759V10.6682C8.12688 10.5152 8.18905 10.3685 8.29972 10.2603C8.41039 10.1521 8.5605 10.0913 8.71701 10.0913C8.87352 10.0913 9.02363 10.1521 9.1343 10.2603C9.24497 10.3685 9.30715 10.5152 9.30715 10.6682V12.9759C9.28683 13.2043 9.35722 13.4316 9.50372 13.6106C9.65023 13.7897 9.86159 13.9067 10.094 13.9375H19.906C20.1384 13.9067 20.3497 13.7897 20.4962 13.6106C20.6427 13.4316 20.7131 13.2043 20.6928 12.9759V10.6682C20.6928 10.5152 20.755 10.3685 20.8657 10.2603C20.9763 10.1521 21.1264 10.0913 21.2829 10.0913C21.4395 10.0913 21.5896 10.1521 21.7002 10.2603C21.8109 10.3685 21.8731 10.5152 21.8731 10.6682V12.9759C21.8966 13.5108 21.7032 14.0332 21.3348 14.4293C20.9664 14.8255 20.4529 15.0634 19.906 15.0913Z" fill="#363636"/>
<path fill-rule="evenodd" clip-rule="evenodd" d="M14.9746 13.2162C14.9831 13.2167 14.9917 13.2169 15.0003 13.217C15.0088 13.2169 15.0173 13.2167 15.0257 13.2162C15.067 13.2146 15.1078 13.2086 15.1477 13.1984C15.2574 13.1717 15.3586 13.117 15.4399 13.039C15.4738 13.0064 15.5035 12.9706 15.5285 12.9322L18.5911 9.84811C18.6961 9.73462 18.7533 9.58452 18.7505 9.42942C18.7478 9.27432 18.6854 9.12634 18.5765 9.01665C18.4676 8.90696 18.3206 8.84413 18.1666 8.8414C18.0126 8.83866 17.8635 8.89623 17.7508 9.00198L15.6253 11.1424V5.06636C15.6253 4.90722 15.5595 4.75459 15.4423 4.64206C15.325 4.52953 15.166 4.46631 15.0003 4.46631C14.8345 4.46631 14.6755 4.52953 14.5583 4.64206C14.4411 4.75459 14.3752 4.90722 14.3752 5.06636V11.1424L12.2498 9.00198C12.1371 8.89623 11.988 8.83866 11.834 8.8414C11.68 8.84413 11.533 8.90696 11.4241 9.01665C11.3152 9.12634 11.2528 9.27432 11.2501 9.42942C11.2474 9.58452 11.3045 9.73462 11.4096 9.84811L14.4719 12.9319C14.497 12.9704 14.5267 13.0064 14.5607 13.039C14.6424 13.1174 14.7441 13.1722 14.8544 13.1988C14.8937 13.2088 14.934 13.2146 14.9746 13.2162Z" fill="#363636"/>
<path d="M10.3763 21.1655V21.0718H10.2826H7.46387H7.37012V21.1655V22.0786V22.1724H7.46387H8.91456V23.4497C8.86231 23.4972 8.79136 23.549 8.69989 23.6048C8.60181 23.6635 8.46369 23.7175 8.28195 23.7651C8.10513 23.8081 7.87399 23.8306 7.5862 23.8306C7.29837 23.8306 7.04317 23.7805 6.81895 23.6824C6.59525 23.5813 6.40511 23.433 6.24782 23.2363C6.09354 23.0391 5.97281 22.7951 5.88724 22.502C5.80516 22.2094 5.76342 21.8716 5.76342 21.4878V20.9849C5.76342 20.6066 5.80025 20.2727 5.87277 19.9822C5.94527 19.6918 6.05146 19.4491 6.18959 19.252C6.33017 19.0563 6.50485 18.909 6.71431 18.8087C6.92378 18.7083 7.16944 18.6567 7.45368 18.6567C7.78752 18.6567 8.0495 18.7123 8.24556 18.8166L8.24556 18.8167L8.24709 18.8174C8.44995 18.9207 8.60265 19.0618 8.70844 19.2406L8.70843 19.2406L8.70906 19.2416C8.82116 19.4257 8.89718 19.6355 8.93619 19.8722L8.94913 19.9507H9.02869H10.2826H10.3895L10.3755 19.8447C10.3162 19.393 10.1743 18.9891 9.94882 18.6347C9.7211 18.2768 9.39796 17.9988 8.98297 17.7999C8.56872 17.5965 8.05062 17.4976 7.43329 17.4976C6.94756 17.4976 6.50891 17.5757 6.11885 17.7338C5.73217 17.8888 5.40088 18.1183 5.12612 18.422C4.85138 18.7256 4.64144 19.0953 4.49515 19.5291L4.49515 19.5291L4.495 19.5296C4.35193 19.9608 4.28125 20.4496 4.28125 20.9946V21.4878C4.28125 22.0369 4.35894 22.5298 4.5162 22.965L4.51628 22.9652C4.67314 23.3959 4.89535 23.7638 5.18378 24.0671L5.18417 24.0675C5.47576 24.3703 5.82184 24.6008 6.22141 24.7586L6.22205 24.7588C6.62144 24.9132 7.05952 24.9897 7.53523 24.9897C8.0881 24.9897 8.55524 24.9323 8.93416 24.8146C9.30695 24.6989 9.61079 24.5601 9.84231 24.3964L9.8425 24.3962C10.0701 24.2343 10.243 24.0819 10.3562 23.9385L10.3763 23.9129V23.8804V21.1655ZM13.625 22.5973L12.5456 17.6689L12.5294 17.5952H12.454H11.1848H11.0657L11.0937 17.711L12.8114 24.8204L12.8287 24.8921H12.9025H13.2334H13.3409H13.7588H13.8589H14.1462H14.2175L14.2366 24.8234L15.5766 19.9993L16.8949 24.8231L16.9138 24.8921H16.9853H17.2721H17.3727H17.7907H17.898H18.229H18.3028L18.3202 24.8204L20.0379 17.711L20.0659 17.5952H19.9468H18.6725H18.5969L18.5809 17.6691L17.5112 22.6027L16.2044 17.665L16.1859 17.5952H16.1137H15.9126H15.813H15.3492H15.2499H15.0382H14.9663L14.9477 17.6647L13.625 22.5973ZM21.7543 17.5952H20.8948H20.8011V17.689V24.7983V24.8921H20.8948H22.1742H22.268V24.7983V21.8647H25.2019H25.2957V21.771V20.7993V20.7056H25.2019H22.268V18.7593H25.625H25.7188V18.6655V17.689V17.5952H25.625H22.268H22.1742H21.848H21.7543Z" fill="#363636" stroke="#363636" stroke-width="0.1875"/>
</svg>
