<svg width="52" height="62" viewBox="0 0 52 62" fill="none" xmlns="http://www.w3.org/2000/svg">
<path d="M27.084 20.4018C27.084 20.0985 26.952 19.8077 26.7169 19.5932C26.4818 19.3787 26.1629 19.2583 25.8305 19.2583C25.498 19.2583 25.1792 19.3787 24.9441 19.5932C24.709 19.8077 24.5769 20.0985 24.5769 20.4018V29.077L21.7037 26.4537C21.4683 26.2389 21.1491 26.1183 20.8162 26.1183C20.4833 26.1183 20.164 26.2389 19.9287 26.4537C19.6933 26.6684 19.561 26.9596 19.561 27.2633C19.561 27.567 19.6933 27.8582 19.9287 28.073L24.9429 32.6473C25.0594 32.7538 25.1977 32.8383 25.35 32.8959C25.5023 32.9536 25.6656 32.9833 25.8305 32.9833C25.9954 32.9833 26.1586 32.9536 26.3109 32.8959C26.4632 32.8383 26.6016 32.7538 26.718 32.6473L31.7323 28.073C31.9677 27.8582 32.0999 27.567 32.0999 27.2633C32.0999 26.9596 31.9677 26.6684 31.7323 26.4537C31.4969 26.2389 31.1776 26.1183 30.8448 26.1183C30.5119 26.1183 30.1926 26.2389 29.9572 26.4537L27.084 29.077V20.4018Z" fill="black"/>
<path d="M51.4166 54.3333V19.3779C51.4166 18.5689 51.0595 17.7932 50.424 17.2212L33.3467 1.85158C32.7111 1.27959 31.8491 0.958252 30.9504 0.958252H9.05547C6.8085 0.958252 4.65356 1.7616 3.06471 3.19156C1.47586 4.62153 0.583252 6.56098 0.583252 8.58325V54.3333C0.583252 56.3555 1.47586 58.295 3.06471 59.7249C4.65356 61.1549 6.8085 61.9583 9.05547 61.9583H42.9444C45.1913 61.9583 47.3463 61.1549 48.9351 59.7249C50.524 58.295 51.4166 56.3555 51.4166 54.3333ZM32.3541 12.3958C32.3541 13.9125 33.0235 15.367 34.2152 16.4395C35.4068 17.512 37.023 18.1145 38.7083 18.1145H45.8249C46.5736 18.1145 47.1805 18.6607 47.1805 19.3345V54.3333C47.1805 55.3444 46.7342 56.3141 45.9397 57.0291C45.1453 57.7441 44.0678 58.1458 42.9444 58.1458H9.05547C7.93199 58.1458 6.85452 57.7441 6.06009 57.0291C5.26567 56.3141 4.81936 55.3444 4.81936 54.3333V8.58325C4.81936 7.57211 5.26567 6.60239 6.06009 5.88741C6.85452 5.17243 7.93199 4.77075 9.05547 4.77075H30.9985C31.7472 4.77075 32.3541 5.31696 32.3541 5.99075V12.3958Z" fill="black"/>
<path d="M16.1383 42.2095C15.8333 41.6808 15.4096 41.2843 14.8674 41.02C14.3252 40.7455 13.6983 40.6083 12.9866 40.6083C12.2071 40.6083 11.5124 40.7658 10.9024 41.081C10.2924 41.3962 9.81233 41.8435 9.46214 42.423C9.12325 43.0025 8.95381 43.6735 8.95381 44.436C8.95381 45.1985 9.12325 45.8746 9.46214 46.4643C9.81233 47.0438 10.2924 47.4911 10.9024 47.8063C11.5124 48.1214 12.2071 48.279 12.9866 48.279C14.0371 48.279 14.89 48.0147 15.5452 47.486C16.2004 46.9573 16.6014 46.2406 16.7483 45.3358H12.3258V43.948H18.8155V45.3052C18.6912 46.1287 18.3636 46.8862 17.8327 47.5775C17.3131 48.2688 16.6296 48.8229 15.7824 49.2397C14.9465 49.6464 14.0145 49.8498 12.9866 49.8498C11.8795 49.8498 10.8685 49.621 9.95353 49.1635C9.03853 48.6958 8.30992 48.0503 7.7677 47.2268C7.23677 46.4033 6.97131 45.473 6.97131 44.436C6.97131 43.399 7.23677 42.4688 7.7677 41.6452C8.30992 40.8218 9.03853 40.1813 9.95353 39.7238C10.8798 39.2561 11.8908 39.0223 12.9866 39.0223C14.2405 39.0223 15.3532 39.3018 16.3246 39.861C17.3074 40.41 18.0191 41.1928 18.4596 42.2095H16.1383Z" fill="black"/>
<path d="M36.0554 39.1595L32.5648 49.7583H30.379L27.9051 41.7368L25.2787 49.7583L23.1098 49.7735L19.7718 39.1595H21.8221L24.2621 47.791L26.9054 39.1595H29.0743L31.5312 47.7452L33.9882 39.1595H36.0554Z" fill="black"/>
<path d="M44.5788 39.1595V40.5778H39.5802V43.704H43.4775V45.1222H39.5802V49.7583H37.6486V39.1595H44.5788Z" fill="black"/>
</svg>
