<svg width="24" height="24" viewBox="0 0 24 24" fill="none" xmlns="http://www.w3.org/2000/svg">
<path fill-rule="evenodd" clip-rule="evenodd" d="M20.25 6.15L13.9997 2.46234C13.9796 1.09899 12.8681 0 11.5 0C10.1193 0 9 1.11929 9 2.5C9 2.67848 9.0187 2.8526 9.05426 3.02049L3.75 6.15C3.3 6.375 3 6.9 3 7.425V15.2676C2.4022 15.6134 2 16.2597 2 17C2 18.1046 2.89543 19 4 19C4.41175 19 4.79444 18.8756 5.11252 18.6623L10.9231 22.1263C11.273 22.3349 11.7252 22.2292 11.9465 21.8872C12.1803 21.526 12.0663 21.0427 11.6958 20.8239L5.95301 17.433C5.98378 17.2936 6 17.1487 6 17C6 16.0681 5.36261 15.285 4.5 15.063V7.99608C4.5 7.64218 4.68705 7.31464 4.99185 7.13481L9.77709 4.31152C10.2255 4.73815 10.8322 5 11.5 5C12.3536 5 13.1072 4.57223 13.5583 3.91938L19.0081 7.13481C19.313 7.31464 19.5 7.64218 19.5 7.99608V11.25C19.5 11.6642 19.8358 12 20.25 12C20.6642 12 21 11.6642 21 11.25V7.425C21 6.9 20.7 6.45 20.25 6.15ZM17.65 14C18.009 14 18.3 14.291 18.3 14.65V17H20.65C21.009 17 21.3 17.291 21.3 17.65C21.3 18.009 21.009 18.3 20.65 18.3H18.3V20.65C18.3 21.009 18.009 21.3 17.65 21.3C17.291 21.3 17 21.009 17 20.65V18.3H14.65C14.291 18.3 14 18.009 14 17.65C14 17.291 14.291 17 14.65 17H17V14.65C17 14.291 17.291 14 17.65 14Z" fill="#363636"/>
</svg>
