<svg width="24" height="24" viewBox="0 0 24 24" fill="none" xmlns="http://www.w3.org/2000/svg">
<path d="M18.575 11.4986C18.7324 11.4986 18.8409 11.5462 18.9344 11.6392C19.0274 11.7327 19.075 11.8413 19.075 11.9986C19.075 12.1563 19.0272 12.2643 18.9344 12.3571C18.8407 12.4508 18.7322 12.4986 18.575 12.4986H7.4H6.19289L7.04645 13.3522L11.9464 18.2522C12.0309 18.3366 12.083 18.4447 12.0882 18.6134C12.0922 18.7587 12.0497 18.8497 11.9621 18.93L11.9461 18.9447L11.9314 18.9608C11.8474 19.0524 11.7502 19.0986 11.6 19.0986C11.449 19.0986 11.3346 19.0511 11.2286 18.9451L4.62855 12.3451C4.57379 12.2903 4.54673 12.2434 4.53283 12.2053C4.51219 12.1466 4.5 12.0789 4.5 11.9986C4.5 11.9184 4.51219 11.8507 4.53283 11.7919C4.54673 11.7538 4.57379 11.7069 4.62855 11.6522L4.275 11.2986L4.62855 11.6522L11.2286 5.05217C11.3161 4.96462 11.4215 4.91542 11.5771 4.91039C11.7105 4.90665 11.816 4.94671 11.9214 5.05217L11.9291 5.05985L11.9371 5.06719C12.0363 5.15806 12.0836 5.25904 12.0882 5.40068C12.092 5.53405 12.0519 5.63959 11.9464 5.74506L7.04645 10.6451L6.19289 11.4986H7.4H18.575Z" fill="#363636" stroke="#363636"/>
</svg>
