<svg width="210" height="163" viewBox="0 0 210 163" fill="none" xmlns="http://www.w3.org/2000/svg">
<circle cx="92.2427" cy="81.3189" r="81.3189" fill="#EAF0F4"/>
<path d="M46.2563 140.077L32.9219 44.3784C32.5429 41.659 33.026 38.9335 34.2649 36.8015C35.5037 34.6695 37.3968 33.3055 39.5277 33.0097L91.7629 25.759C92.6151 25.6417 93.4923 25.961 94.2016 26.6468L114.062 45.8247C114.415 46.1652 114.716 46.5862 114.947 47.0635C115.178 47.5408 115.336 48.0649 115.41 48.6058L126.602 128.924C126.98 131.643 126.497 134.369 125.259 136.501C124.02 138.633 122.127 139.997 119.996 140.293L55.7195 149.215C53.5886 149.511 51.3944 148.714 49.6198 147C47.8451 145.287 46.6352 142.796 46.2563 140.077Z" fill="#EFEFEF" stroke="#D7D7D7" stroke-width="1.82057" stroke-linecap="round" stroke-linejoin="round"/>
<mask id="path-3-outside-1_965_7624" maskUnits="userSpaceOnUse" x="46.1731" y="38.9265" width="59.7415" height="61.5408" fill="black">
<rect fill="white" x="46.1731" y="38.9265" width="59.7415" height="61.5408"/>
<path d="M65.9902 88.1436C66.155 86.2277 65.5781 84.3225 64.3791 82.824L70.8398 75.8289C71.8871 76.5752 73.1162 77.0232 74.3971 77.1255C74.8404 77.1606 75.2861 77.1546 75.7284 77.1076L76.9676 82.4215C75.2791 83.1 73.897 84.3769 73.0836 86.0099C72.2702 87.6429 72.0821 89.5183 72.5551 91.28C73.0282 93.0416 74.1293 94.567 75.6496 95.5665C77.1698 96.566 79.0033 96.9699 80.8019 96.7017C82.6006 96.4335 84.2391 95.5118 85.4066 94.1116C86.574 92.7113 87.189 90.93 87.1348 89.1059C87.0807 87.2817 86.3611 85.5417 85.1127 84.2162C83.8643 82.8906 82.1741 82.0718 80.3628 81.9152C79.9195 81.8801 79.4738 81.8861 79.0315 81.9332L77.7923 76.6192C79.0665 76.1045 80.1745 75.2463 80.9938 74.1394C81.8131 73.0326 82.3117 71.7202 82.4346 70.3473C82.4918 69.6654 82.4531 68.979 82.3197 68.3082L88.1879 66.2811C89.0045 67.8769 90.368 69.1224 92.0276 69.7885C93.6872 70.4546 95.5312 70.4965 97.2204 69.9064C98.9095 69.3164 100.33 68.134 101.221 66.577C102.112 65.02 102.413 63.1929 102.069 61.4321C101.724 59.6713 100.758 58.095 99.3477 56.9935C97.9372 55.8919 96.1774 55.339 94.392 55.4366C92.6066 55.5343 90.9157 56.2757 89.6304 57.5247C88.3452 58.7736 87.552 60.446 87.3968 62.2342C87.3396 62.916 87.3783 63.6025 87.5117 64.2733L81.6435 66.3004C81.1932 65.4187 80.572 64.6363 79.8162 63.9991C79.0605 63.3618 78.1855 62.8825 77.2425 62.5893C76.2995 62.2961 75.3075 62.1948 74.3247 62.2915C73.3418 62.3881 72.3878 62.6807 71.5187 63.1522L65.0454 54.4203C66.291 53.1884 67.0565 51.55 67.2031 49.8016C67.3461 48.1497 66.936 46.4977 66.0376 45.1073C65.1392 43.7169 63.804 42.6676 62.2435 42.1258C60.683 41.5839 58.9865 41.5804 57.4228 42.1158C55.859 42.6512 54.5175 43.695 53.6106 45.0817C52.7038 46.4683 52.2836 48.1187 52.4166 49.7711C52.5495 51.4236 53.2281 52.9838 54.3447 54.2044C55.4613 55.425 56.9522 56.2362 58.581 56.5097C60.2098 56.7831 61.8835 56.503 63.3369 55.7137L69.8103 64.4456C68.5646 65.6774 67.7991 67.3159 67.6525 69.0642C67.4876 70.9801 68.0646 72.8853 69.2635 74.3838L62.8029 81.3789C61.7556 80.6326 60.5264 80.1846 59.2456 80.0823C57.7838 79.9554 56.3169 80.2665 55.0304 80.9763C53.7439 81.6861 52.6956 82.7627 52.0181 84.0699C51.3406 85.3772 51.0642 86.8563 51.224 88.3204C51.3838 89.7844 51.9725 91.1676 52.9158 92.295C53.859 93.4223 55.1144 94.2433 56.5232 94.654C57.9319 95.0648 59.4308 95.0468 60.8303 94.6025C62.2298 94.1581 63.4669 93.3073 64.3854 92.1576C65.3038 91.0079 65.8623 89.611 65.9902 88.1436V88.1436ZM84.9957 89.7932C84.9043 90.8414 84.5054 91.8392 83.8494 92.6604C83.1934 93.4816 82.3097 94.0893 81.3101 94.4067C80.3104 94.7241 79.2398 94.7369 78.2335 94.4435C77.2273 94.1501 76.3306 93.5637 75.6568 92.7585C74.9831 91.9532 74.5625 90.9652 74.4484 89.9195C74.3343 88.8737 74.5317 87.8172 75.0156 86.8835C75.4996 85.9497 76.2484 85.1807 77.1673 84.6737C78.0862 84.1668 79.134 83.9445 80.1781 84.0351C81.5755 84.1635 82.8655 84.8403 83.7676 85.9185C84.6697 86.9967 85.111 88.3891 84.9957 89.7932ZM95.2496 57.5759C96.2938 57.6665 97.2874 58.0659 98.1048 58.7237C98.9223 59.3814 99.5268 60.2678 99.842 61.2709C100.157 62.274 100.169 63.3487 99.8757 64.3591C99.5824 65.3695 98.9973 66.2701 98.1944 66.9473C97.3915 67.6244 96.4068 68.0475 95.3649 68.1631C94.323 68.2787 93.2707 68.0816 92.341 67.5967C91.4112 67.1119 90.6459 66.361 90.1417 65.4391C89.6376 64.5172 89.4172 63.4657 89.5086 62.4175C89.6378 61.0146 90.3133 59.7191 91.3883 58.8125C92.4634 57.9059 93.851 57.4615 95.2496 57.5759V57.5759ZM54.5328 48.7019C54.6241 47.6537 55.023 46.6559 55.679 45.8347C56.3351 45.0135 57.2188 44.4058 58.2184 44.0884C59.218 43.771 60.2886 43.7582 61.2949 44.0515C62.3012 44.3449 63.1979 44.9313 63.8716 45.7366C64.5454 46.5419 64.9659 47.5299 65.08 48.5756C65.1942 49.6213 64.9968 50.6779 64.5128 51.6116C64.0289 52.5453 63.2801 53.3143 62.3612 53.8213C61.4423 54.3283 60.3945 54.5506 59.3503 54.4599C57.9529 54.3316 56.663 53.6548 55.7609 52.5766C54.8588 51.4984 54.4174 50.1059 54.5328 48.7019V48.7019ZM69.7642 69.2475C69.8556 68.1993 70.2545 67.2015 70.9105 66.3803C71.5665 65.5591 72.4502 64.9514 73.4498 64.634C74.4495 64.3166 75.5201 64.3038 76.5264 64.5972C77.5326 64.8906 78.4293 65.477 79.1031 66.2823C79.7768 67.0875 80.1974 68.0755 80.3115 69.1213C80.4256 70.167 80.2282 71.2235 79.7443 72.1573C79.2603 73.091 78.5115 73.86 77.5926 74.367C76.6737 74.874 75.6259 75.0962 74.5818 75.0056C73.1844 74.8773 71.8944 74.2005 70.9923 73.1222C70.0902 72.044 69.6489 70.6516 69.7642 69.2475ZM53.3198 87.0438C53.4112 85.9956 53.8101 84.9978 54.4661 84.1766C55.1221 83.3554 56.0058 82.7477 57.0054 82.4303C58.0051 82.1129 59.0757 82.1001 60.082 82.3935C61.0882 82.6868 61.9849 83.2732 62.6587 84.0785C63.3324 84.8838 63.753 85.8718 63.8671 86.9175C63.9812 87.9633 63.7838 89.0198 63.2999 89.9535C62.8159 90.8873 62.0671 91.6562 61.1482 92.1632C60.2293 92.6702 59.1815 92.8925 58.1374 92.8018C56.74 92.6735 55.45 91.9967 54.5479 90.9185C53.6458 89.8403 53.2045 88.4479 53.3198 87.0438V87.0438Z"/>
</mask>
<path d="M65.9902 88.1436C66.155 86.2277 65.5781 84.3225 64.3791 82.824L70.8398 75.8289C71.8871 76.5752 73.1162 77.0232 74.3971 77.1255C74.8404 77.1606 75.2861 77.1546 75.7284 77.1076L76.9676 82.4215C75.2791 83.1 73.897 84.3769 73.0836 86.0099C72.2702 87.6429 72.0821 89.5183 72.5551 91.28C73.0282 93.0416 74.1293 94.567 75.6496 95.5665C77.1698 96.566 79.0033 96.9699 80.8019 96.7017C82.6006 96.4335 84.2391 95.5118 85.4066 94.1116C86.574 92.7113 87.189 90.93 87.1348 89.1059C87.0807 87.2817 86.3611 85.5417 85.1127 84.2162C83.8643 82.8906 82.1741 82.0718 80.3628 81.9152C79.9195 81.8801 79.4738 81.8861 79.0315 81.9332L77.7923 76.6192C79.0665 76.1045 80.1745 75.2463 80.9938 74.1394C81.8131 73.0326 82.3117 71.7202 82.4346 70.3473C82.4918 69.6654 82.4531 68.979 82.3197 68.3082L88.1879 66.2811C89.0045 67.8769 90.368 69.1224 92.0276 69.7885C93.6872 70.4546 95.5312 70.4965 97.2204 69.9064C98.9095 69.3164 100.33 68.134 101.221 66.577C102.112 65.02 102.413 63.1929 102.069 61.4321C101.724 59.6713 100.758 58.095 99.3477 56.9935C97.9372 55.8919 96.1774 55.339 94.392 55.4366C92.6066 55.5343 90.9157 56.2757 89.6304 57.5247C88.3452 58.7736 87.552 60.446 87.3968 62.2342C87.3396 62.916 87.3783 63.6025 87.5117 64.2733L81.6435 66.3004C81.1932 65.4187 80.572 64.6363 79.8162 63.9991C79.0605 63.3618 78.1855 62.8825 77.2425 62.5893C76.2995 62.2961 75.3075 62.1948 74.3247 62.2915C73.3418 62.3881 72.3878 62.6807 71.5187 63.1522L65.0454 54.4203C66.291 53.1884 67.0565 51.55 67.2031 49.8016C67.3461 48.1497 66.936 46.4977 66.0376 45.1073C65.1392 43.7169 63.804 42.6676 62.2435 42.1258C60.683 41.5839 58.9865 41.5804 57.4228 42.1158C55.859 42.6512 54.5175 43.695 53.6106 45.0817C52.7038 46.4683 52.2836 48.1187 52.4166 49.7711C52.5495 51.4236 53.2281 52.9838 54.3447 54.2044C55.4613 55.425 56.9522 56.2362 58.581 56.5097C60.2098 56.7831 61.8835 56.503 63.3369 55.7137L69.8103 64.4456C68.5646 65.6774 67.7991 67.3159 67.6525 69.0642C67.4876 70.9801 68.0646 72.8853 69.2635 74.3838L62.8029 81.3789C61.7556 80.6326 60.5264 80.1846 59.2456 80.0823C57.7838 79.9554 56.3169 80.2665 55.0304 80.9763C53.7439 81.6861 52.6956 82.7627 52.0181 84.0699C51.3406 85.3772 51.0642 86.8563 51.224 88.3204C51.3838 89.7844 51.9725 91.1676 52.9158 92.295C53.859 93.4223 55.1144 94.2433 56.5232 94.654C57.9319 95.0648 59.4308 95.0468 60.8303 94.6025C62.2298 94.1581 63.4669 93.3073 64.3854 92.1576C65.3038 91.0079 65.8623 89.611 65.9902 88.1436V88.1436ZM84.9957 89.7932C84.9043 90.8414 84.5054 91.8392 83.8494 92.6604C83.1934 93.4816 82.3097 94.0893 81.3101 94.4067C80.3104 94.7241 79.2398 94.7369 78.2335 94.4435C77.2273 94.1501 76.3306 93.5637 75.6568 92.7585C74.9831 91.9532 74.5625 90.9652 74.4484 89.9195C74.3343 88.8737 74.5317 87.8172 75.0156 86.8835C75.4996 85.9497 76.2484 85.1807 77.1673 84.6737C78.0862 84.1668 79.134 83.9445 80.1781 84.0351C81.5755 84.1635 82.8655 84.8403 83.7676 85.9185C84.6697 86.9967 85.111 88.3891 84.9957 89.7932ZM95.2496 57.5759C96.2938 57.6665 97.2874 58.0659 98.1048 58.7237C98.9223 59.3814 99.5268 60.2678 99.842 61.2709C100.157 62.274 100.169 63.3487 99.8757 64.3591C99.5824 65.3695 98.9973 66.2701 98.1944 66.9473C97.3915 67.6244 96.4068 68.0475 95.3649 68.1631C94.323 68.2787 93.2707 68.0816 92.341 67.5967C91.4112 67.1119 90.6459 66.361 90.1417 65.4391C89.6376 64.5172 89.4172 63.4657 89.5086 62.4175C89.6378 61.0146 90.3133 59.7191 91.3883 58.8125C92.4634 57.9059 93.851 57.4615 95.2496 57.5759V57.5759ZM54.5328 48.7019C54.6241 47.6537 55.023 46.6559 55.679 45.8347C56.3351 45.0135 57.2188 44.4058 58.2184 44.0884C59.218 43.771 60.2886 43.7582 61.2949 44.0515C62.3012 44.3449 63.1979 44.9313 63.8716 45.7366C64.5454 46.5419 64.9659 47.5299 65.08 48.5756C65.1942 49.6213 64.9968 50.6779 64.5128 51.6116C64.0289 52.5453 63.2801 53.3143 62.3612 53.8213C61.4423 54.3283 60.3945 54.5506 59.3503 54.4599C57.9529 54.3316 56.663 53.6548 55.7609 52.5766C54.8588 51.4984 54.4174 50.1059 54.5328 48.7019V48.7019ZM69.7642 69.2475C69.8556 68.1993 70.2545 67.2015 70.9105 66.3803C71.5665 65.5591 72.4502 64.9514 73.4498 64.634C74.4495 64.3166 75.5201 64.3038 76.5264 64.5972C77.5326 64.8906 78.4293 65.477 79.1031 66.2823C79.7768 67.0875 80.1974 68.0755 80.3115 69.1213C80.4256 70.167 80.2282 71.2235 79.7443 72.1573C79.2603 73.091 78.5115 73.86 77.5926 74.367C76.6737 74.874 75.6259 75.0962 74.5818 75.0056C73.1844 74.8773 71.8944 74.2005 70.9923 73.1222C70.0902 72.044 69.6489 70.6516 69.7642 69.2475ZM53.3198 87.0438C53.4112 85.9956 53.8101 84.9978 54.4661 84.1766C55.1221 83.3554 56.0058 82.7477 57.0054 82.4303C58.0051 82.1129 59.0757 82.1001 60.082 82.3935C61.0882 82.6868 61.9849 83.2732 62.6587 84.0785C63.3324 84.8838 63.753 85.8718 63.8671 86.9175C63.9812 87.9633 63.7838 89.0198 63.2999 89.9535C62.8159 90.8873 62.0671 91.6562 61.1482 92.1632C60.2293 92.6702 59.1815 92.8925 58.1374 92.8018C56.74 92.6735 55.45 91.9967 54.5479 90.9185C53.6458 89.8403 53.2045 88.4479 53.3198 87.0438V87.0438Z" fill="white"/>
<path d="M65.9902 88.1436C66.155 86.2277 65.5781 84.3225 64.3791 82.824L70.8398 75.8289C71.8871 76.5752 73.1162 77.0232 74.3971 77.1255C74.8404 77.1606 75.2861 77.1546 75.7284 77.1076L76.9676 82.4215C75.2791 83.1 73.897 84.3769 73.0836 86.0099C72.2702 87.6429 72.0821 89.5183 72.5551 91.28C73.0282 93.0416 74.1293 94.567 75.6496 95.5665C77.1698 96.566 79.0033 96.9699 80.8019 96.7017C82.6006 96.4335 84.2391 95.5118 85.4066 94.1116C86.574 92.7113 87.189 90.93 87.1348 89.1059C87.0807 87.2817 86.3611 85.5417 85.1127 84.2162C83.8643 82.8906 82.1741 82.0718 80.3628 81.9152C79.9195 81.8801 79.4738 81.8861 79.0315 81.9332L77.7923 76.6192C79.0665 76.1045 80.1745 75.2463 80.9938 74.1394C81.8131 73.0326 82.3117 71.7202 82.4346 70.3473C82.4918 69.6654 82.4531 68.979 82.3197 68.3082L88.1879 66.2811C89.0045 67.8769 90.368 69.1224 92.0276 69.7885C93.6872 70.4546 95.5312 70.4965 97.2204 69.9064C98.9095 69.3164 100.33 68.134 101.221 66.577C102.112 65.02 102.413 63.1929 102.069 61.4321C101.724 59.6713 100.758 58.095 99.3477 56.9935C97.9372 55.8919 96.1774 55.339 94.392 55.4366C92.6066 55.5343 90.9157 56.2757 89.6304 57.5247C88.3452 58.7736 87.552 60.446 87.3968 62.2342C87.3396 62.916 87.3783 63.6025 87.5117 64.2733L81.6435 66.3004C81.1932 65.4187 80.572 64.6363 79.8162 63.9991C79.0605 63.3618 78.1855 62.8825 77.2425 62.5893C76.2995 62.2961 75.3075 62.1948 74.3247 62.2915C73.3418 62.3881 72.3878 62.6807 71.5187 63.1522L65.0454 54.4203C66.291 53.1884 67.0565 51.55 67.2031 49.8016C67.3461 48.1497 66.936 46.4977 66.0376 45.1073C65.1392 43.7169 63.804 42.6676 62.2435 42.1258C60.683 41.5839 58.9865 41.5804 57.4228 42.1158C55.859 42.6512 54.5175 43.695 53.6106 45.0817C52.7038 46.4683 52.2836 48.1187 52.4166 49.7711C52.5495 51.4236 53.2281 52.9838 54.3447 54.2044C55.4613 55.425 56.9522 56.2362 58.581 56.5097C60.2098 56.7831 61.8835 56.503 63.3369 55.7137L69.8103 64.4456C68.5646 65.6774 67.7991 67.3159 67.6525 69.0642C67.4876 70.9801 68.0646 72.8853 69.2635 74.3838L62.8029 81.3789C61.7556 80.6326 60.5264 80.1846 59.2456 80.0823C57.7838 79.9554 56.3169 80.2665 55.0304 80.9763C53.7439 81.6861 52.6956 82.7627 52.0181 84.0699C51.3406 85.3772 51.0642 86.8563 51.224 88.3204C51.3838 89.7844 51.9725 91.1676 52.9158 92.295C53.859 93.4223 55.1144 94.2433 56.5232 94.654C57.9319 95.0648 59.4308 95.0468 60.8303 94.6025C62.2298 94.1581 63.4669 93.3073 64.3854 92.1576C65.3038 91.0079 65.8623 89.611 65.9902 88.1436V88.1436ZM84.9957 89.7932C84.9043 90.8414 84.5054 91.8392 83.8494 92.6604C83.1934 93.4816 82.3097 94.0893 81.3101 94.4067C80.3104 94.7241 79.2398 94.7369 78.2335 94.4435C77.2273 94.1501 76.3306 93.5637 75.6568 92.7585C74.9831 91.9532 74.5625 90.9652 74.4484 89.9195C74.3343 88.8737 74.5317 87.8172 75.0156 86.8835C75.4996 85.9497 76.2484 85.1807 77.1673 84.6737C78.0862 84.1668 79.134 83.9445 80.1781 84.0351C81.5755 84.1635 82.8655 84.8403 83.7676 85.9185C84.6697 86.9967 85.111 88.3891 84.9957 89.7932ZM95.2496 57.5759C96.2938 57.6665 97.2874 58.0659 98.1048 58.7237C98.9223 59.3814 99.5268 60.2678 99.842 61.2709C100.157 62.274 100.169 63.3487 99.8757 64.3591C99.5824 65.3695 98.9973 66.2701 98.1944 66.9473C97.3915 67.6244 96.4068 68.0475 95.3649 68.1631C94.323 68.2787 93.2707 68.0816 92.341 67.5967C91.4112 67.1119 90.6459 66.361 90.1417 65.4391C89.6376 64.5172 89.4172 63.4657 89.5086 62.4175C89.6378 61.0146 90.3133 59.7191 91.3883 58.8125C92.4634 57.9059 93.851 57.4615 95.2496 57.5759V57.5759ZM54.5328 48.7019C54.6241 47.6537 55.023 46.6559 55.679 45.8347C56.3351 45.0135 57.2188 44.4058 58.2184 44.0884C59.218 43.771 60.2886 43.7582 61.2949 44.0515C62.3012 44.3449 63.1979 44.9313 63.8716 45.7366C64.5454 46.5419 64.9659 47.5299 65.08 48.5756C65.1942 49.6213 64.9968 50.6779 64.5128 51.6116C64.0289 52.5453 63.2801 53.3143 62.3612 53.8213C61.4423 54.3283 60.3945 54.5506 59.3503 54.4599C57.9529 54.3316 56.663 53.6548 55.7609 52.5766C54.8588 51.4984 54.4174 50.1059 54.5328 48.7019V48.7019ZM69.7642 69.2475C69.8556 68.1993 70.2545 67.2015 70.9105 66.3803C71.5665 65.5591 72.4502 64.9514 73.4498 64.634C74.4495 64.3166 75.5201 64.3038 76.5264 64.5972C77.5326 64.8906 78.4293 65.477 79.1031 66.2823C79.7768 67.0875 80.1974 68.0755 80.3115 69.1213C80.4256 70.167 80.2282 71.2235 79.7443 72.1573C79.2603 73.091 78.5115 73.86 77.5926 74.367C76.6737 74.874 75.6259 75.0962 74.5818 75.0056C73.1844 74.8773 71.8944 74.2005 70.9923 73.1222C70.0902 72.044 69.6489 70.6516 69.7642 69.2475ZM53.3198 87.0438C53.4112 85.9956 53.8101 84.9978 54.4661 84.1766C55.1221 83.3554 56.0058 82.7477 57.0054 82.4303C58.0051 82.1129 59.0757 82.1001 60.082 82.3935C61.0882 82.6868 61.9849 83.2732 62.6587 84.0785C63.3324 84.8838 63.753 85.8718 63.8671 86.9175C63.9812 87.9633 63.7838 89.0198 63.2999 89.9535C62.8159 90.8873 62.0671 91.6562 61.1482 92.1632C60.2293 92.6702 59.1815 92.8925 58.1374 92.8018C56.74 92.6735 55.45 91.9967 54.5479 90.9185C53.6458 89.8403 53.2045 88.4479 53.3198 87.0438V87.0438Z" stroke="#D7D7D7" stroke-width="2.42743" mask="url(#path-3-outside-1_965_7624)"/>
<mask id="path-4-outside-2_965_7624" maskUnits="userSpaceOnUse" x="56.7092" y="102.089" width="37.0639" height="36.1908" fill="black">
<rect fill="white" x="56.7092" y="102.089" width="37.0639" height="36.1908"/>
<path d="M63.5631 116.827C64.6294 116.679 65.5981 116.129 66.2676 115.292L70.8866 117.939C70.6089 118.601 70.5165 119.325 70.6193 120.034C70.6551 120.279 70.7135 120.521 70.794 120.756L68.0465 122.088C67.467 121.254 66.5987 120.66 65.6065 120.42C64.6142 120.18 63.5672 120.31 62.664 120.785C61.7608 121.261 61.0645 122.049 60.7072 122.999C60.3498 123.95 60.3564 124.997 60.7255 125.942C61.0947 126.887 61.8009 127.664 62.7099 128.125C63.6189 128.587 64.6675 128.701 65.6566 128.445C66.6458 128.19 67.5066 127.583 68.0756 126.74C68.6446 125.897 68.8823 124.876 68.7434 123.872C68.7077 123.626 68.6492 123.385 68.5687 123.15L71.3162 121.818C71.755 122.447 72.3608 122.943 73.0665 123.252C73.7722 123.56 74.5505 123.669 75.3152 123.566C75.6945 123.512 76.0644 123.406 76.4141 123.251L78.2476 126.191C77.4775 126.833 76.9664 127.729 76.8083 128.714C76.6503 129.699 76.8558 130.707 77.3871 131.552C77.9185 132.398 78.7399 133.024 79.7002 133.316C80.6606 133.607 81.6953 133.545 82.6139 133.139C83.5326 132.734 84.2734 132.013 84.7 131.11C85.1267 130.206 85.2106 129.181 84.9362 128.222C84.6617 127.263 84.0475 126.435 83.2065 125.891C82.3655 125.347 81.3543 125.122 80.3589 125.26C79.9795 125.313 79.6096 125.419 79.2599 125.575L77.4265 122.634C77.852 122.28 78.2022 121.845 78.4565 121.355C78.7108 120.866 78.8641 120.33 78.9073 119.781C78.9506 119.232 78.883 118.68 78.7085 118.157C78.534 117.635 78.2561 117.152 77.8911 116.738L81.8563 112.136C82.6831 112.661 83.6723 112.874 84.6449 112.737C85.5645 112.611 86.4155 112.183 87.0633 111.522C87.7111 110.861 88.1185 110.005 88.2211 109.089C88.3236 108.174 88.1154 107.251 87.6294 106.466C87.1435 105.682 86.4075 105.082 85.5382 104.761C84.6689 104.439 83.7159 104.415 82.8302 104.692C81.9446 104.969 81.1769 105.531 80.6488 106.29C80.1208 107.048 79.8625 107.959 79.915 108.879C79.9675 109.799 80.3277 110.674 80.9386 111.367L76.9734 115.969C76.1467 115.444 75.1574 115.231 74.1848 115.368C73.1184 115.515 72.1498 116.065 71.4803 116.903L66.8613 114.255C67.139 113.593 67.2313 112.869 67.1286 112.16C67.0168 111.349 66.6652 110.59 66.1184 109.978C65.5716 109.367 64.854 108.93 64.0565 108.723C63.2589 108.517 62.4172 108.55 61.6377 108.818C60.8583 109.086 60.1761 109.578 59.6775 110.23C59.1788 110.883 58.8861 111.667 58.8364 112.484C58.7866 113.301 58.9821 114.114 59.398 114.82C59.8139 115.526 60.4316 116.094 61.173 116.451C61.9144 116.808 62.7461 116.939 63.5631 116.827V116.827ZM65.0165 127.367C64.4329 127.447 63.8388 127.354 63.3092 127.099C62.7797 126.844 62.3385 126.438 62.0414 125.934C61.7443 125.43 61.6047 124.849 61.6402 124.265C61.6758 123.682 61.8848 123.122 62.241 122.655C62.5972 122.189 63.0844 121.838 63.6412 121.647C64.198 121.455 64.7992 121.431 65.3689 121.579C65.9386 121.727 66.4511 122.039 66.8417 122.475C67.2323 122.912 67.4834 123.455 67.5632 124.034C67.6662 124.81 67.4565 125.595 66.9796 126.219C66.5028 126.843 65.7973 127.256 65.0165 127.367ZM83.8745 128.953C83.9544 129.532 83.8594 130.122 83.6016 130.648C83.3438 131.174 82.9347 131.613 82.4261 131.909C81.9176 132.204 81.3323 132.344 80.7444 132.309C80.1565 132.275 79.5923 132.068 79.1232 131.716C78.6541 131.363 78.3012 130.88 78.1091 130.327C77.9169 129.775 77.8942 129.178 78.0437 128.613C78.1932 128.047 78.5084 127.538 78.9492 127.149C79.39 126.761 79.9368 126.511 80.5204 126.431C81.3022 126.327 82.0931 126.534 82.7212 127.007C83.3493 127.479 83.7637 128.179 83.8745 128.953V128.953ZM83.676 105.71C84.2596 105.63 84.8537 105.724 85.3833 105.979C85.9128 106.234 86.354 106.639 86.6511 107.143C86.9482 107.648 87.0878 108.228 87.0523 108.812C87.0167 109.396 86.8077 109.956 86.4515 110.422C86.0953 110.888 85.6081 111.239 85.0513 111.431C84.4946 111.623 83.8933 111.646 83.3236 111.498C82.754 111.351 82.2414 111.039 81.8508 110.602C81.4602 110.165 81.2091 109.623 81.1293 109.044C81.0263 108.268 81.236 107.482 81.7129 106.858C82.1898 106.234 82.8953 105.822 83.676 105.71V105.71ZM74.3463 116.539C74.9298 116.459 75.5239 116.552 76.0535 116.807C76.583 117.062 77.0243 117.467 77.3213 117.972C77.6184 118.476 77.758 119.057 77.7225 119.64C77.687 120.224 77.4779 120.784 77.1217 121.25C76.7656 121.717 76.2783 122.068 75.7215 122.259C75.1648 122.451 74.5635 122.474 73.9939 122.327C73.4242 122.179 72.9116 121.867 72.521 121.43C72.1304 120.993 71.8794 120.451 71.7995 119.872C71.6965 119.096 71.9062 118.311 72.3831 117.687C72.86 117.062 73.5655 116.65 74.3463 116.539ZM62.5942 109.8C63.1778 109.719 63.7719 109.813 64.3014 110.068C64.831 110.323 65.2722 110.728 65.5693 111.233C65.8664 111.737 66.006 112.318 65.9704 112.901C65.9349 113.485 65.7258 114.045 65.3697 114.511C65.0135 114.977 64.5262 115.328 63.9695 115.52C63.4127 115.712 62.8115 115.735 62.2418 115.588C61.6721 115.44 61.1596 115.128 60.769 114.691C60.3784 114.254 60.1273 113.712 60.0475 113.133C59.9444 112.357 60.1541 111.572 60.631 110.947C61.1079 110.323 61.8134 109.911 62.5942 109.8V109.8Z"/>
</mask>
<path d="M63.5631 116.827C64.6294 116.679 65.5981 116.129 66.2676 115.292L70.8866 117.939C70.6089 118.601 70.5165 119.325 70.6193 120.034C70.6551 120.279 70.7135 120.521 70.794 120.756L68.0465 122.088C67.467 121.254 66.5987 120.66 65.6065 120.42C64.6142 120.18 63.5672 120.31 62.664 120.785C61.7608 121.261 61.0645 122.049 60.7072 122.999C60.3498 123.95 60.3564 124.997 60.7255 125.942C61.0947 126.887 61.8009 127.664 62.7099 128.125C63.6189 128.587 64.6675 128.701 65.6566 128.445C66.6458 128.19 67.5066 127.583 68.0756 126.74C68.6446 125.897 68.8823 124.876 68.7434 123.872C68.7077 123.626 68.6492 123.385 68.5687 123.15L71.3162 121.818C71.755 122.447 72.3608 122.943 73.0665 123.252C73.7722 123.56 74.5505 123.669 75.3152 123.566C75.6945 123.512 76.0644 123.406 76.4141 123.251L78.2476 126.191C77.4775 126.833 76.9664 127.729 76.8083 128.714C76.6503 129.699 76.8558 130.707 77.3871 131.552C77.9185 132.398 78.7399 133.024 79.7002 133.316C80.6606 133.607 81.6953 133.545 82.6139 133.139C83.5326 132.734 84.2734 132.013 84.7 131.11C85.1267 130.206 85.2106 129.181 84.9362 128.222C84.6617 127.263 84.0475 126.435 83.2065 125.891C82.3655 125.347 81.3543 125.122 80.3589 125.26C79.9795 125.313 79.6096 125.419 79.2599 125.575L77.4265 122.634C77.852 122.28 78.2022 121.845 78.4565 121.355C78.7108 120.866 78.8641 120.33 78.9073 119.781C78.9506 119.232 78.883 118.68 78.7085 118.157C78.534 117.635 78.2561 117.152 77.8911 116.738L81.8563 112.136C82.6831 112.661 83.6723 112.874 84.6449 112.737C85.5645 112.611 86.4155 112.183 87.0633 111.522C87.7111 110.861 88.1185 110.005 88.2211 109.089C88.3236 108.174 88.1154 107.251 87.6294 106.466C87.1435 105.682 86.4075 105.082 85.5382 104.761C84.6689 104.439 83.7159 104.415 82.8302 104.692C81.9446 104.969 81.1769 105.531 80.6488 106.29C80.1208 107.048 79.8625 107.959 79.915 108.879C79.9675 109.799 80.3277 110.674 80.9386 111.367L76.9734 115.969C76.1467 115.444 75.1574 115.231 74.1848 115.368C73.1184 115.515 72.1498 116.065 71.4803 116.903L66.8613 114.255C67.139 113.593 67.2313 112.869 67.1286 112.16C67.0168 111.349 66.6652 110.59 66.1184 109.978C65.5716 109.367 64.854 108.93 64.0565 108.723C63.2589 108.517 62.4172 108.55 61.6377 108.818C60.8583 109.086 60.1761 109.578 59.6775 110.23C59.1788 110.883 58.8861 111.667 58.8364 112.484C58.7866 113.301 58.9821 114.114 59.398 114.82C59.8139 115.526 60.4316 116.094 61.173 116.451C61.9144 116.808 62.7461 116.939 63.5631 116.827V116.827ZM65.0165 127.367C64.4329 127.447 63.8388 127.354 63.3092 127.099C62.7797 126.844 62.3385 126.438 62.0414 125.934C61.7443 125.43 61.6047 124.849 61.6402 124.265C61.6758 123.682 61.8848 123.122 62.241 122.655C62.5972 122.189 63.0844 121.838 63.6412 121.647C64.198 121.455 64.7992 121.431 65.3689 121.579C65.9386 121.727 66.4511 122.039 66.8417 122.475C67.2323 122.912 67.4834 123.455 67.5632 124.034C67.6662 124.81 67.4565 125.595 66.9796 126.219C66.5028 126.843 65.7973 127.256 65.0165 127.367ZM83.8745 128.953C83.9544 129.532 83.8594 130.122 83.6016 130.648C83.3438 131.174 82.9347 131.613 82.4261 131.909C81.9176 132.204 81.3323 132.344 80.7444 132.309C80.1565 132.275 79.5923 132.068 79.1232 131.716C78.6541 131.363 78.3012 130.88 78.1091 130.327C77.9169 129.775 77.8942 129.178 78.0437 128.613C78.1932 128.047 78.5084 127.538 78.9492 127.149C79.39 126.761 79.9368 126.511 80.5204 126.431C81.3022 126.327 82.0931 126.534 82.7212 127.007C83.3493 127.479 83.7637 128.179 83.8745 128.953V128.953ZM83.676 105.71C84.2596 105.63 84.8537 105.724 85.3833 105.979C85.9128 106.234 86.354 106.639 86.6511 107.143C86.9482 107.648 87.0878 108.228 87.0523 108.812C87.0167 109.396 86.8077 109.956 86.4515 110.422C86.0953 110.888 85.6081 111.239 85.0513 111.431C84.4946 111.623 83.8933 111.646 83.3236 111.498C82.754 111.351 82.2414 111.039 81.8508 110.602C81.4602 110.165 81.2091 109.623 81.1293 109.044C81.0263 108.268 81.236 107.482 81.7129 106.858C82.1898 106.234 82.8953 105.822 83.676 105.71V105.71ZM74.3463 116.539C74.9298 116.459 75.5239 116.552 76.0535 116.807C76.583 117.062 77.0243 117.467 77.3213 117.972C77.6184 118.476 77.758 119.057 77.7225 119.64C77.687 120.224 77.4779 120.784 77.1217 121.25C76.7656 121.717 76.2783 122.068 75.7215 122.259C75.1648 122.451 74.5635 122.474 73.9939 122.327C73.4242 122.179 72.9116 121.867 72.521 121.43C72.1304 120.993 71.8794 120.451 71.7995 119.872C71.6965 119.096 71.9062 118.311 72.3831 117.687C72.86 117.062 73.5655 116.65 74.3463 116.539ZM62.5942 109.8C63.1778 109.719 63.7719 109.813 64.3014 110.068C64.831 110.323 65.2722 110.728 65.5693 111.233C65.8664 111.737 66.006 112.318 65.9704 112.901C65.9349 113.485 65.7258 114.045 65.3697 114.511C65.0135 114.977 64.5262 115.328 63.9695 115.52C63.4127 115.712 62.8115 115.735 62.2418 115.588C61.6721 115.44 61.1596 115.128 60.769 114.691C60.3784 114.254 60.1273 113.712 60.0475 113.133C59.9444 112.357 60.1541 111.572 60.631 110.947C61.1079 110.323 61.8134 109.911 62.5942 109.8V109.8Z" fill="white"/>
<path d="M63.5631 116.827C64.6294 116.679 65.5981 116.129 66.2676 115.292L70.8866 117.939C70.6089 118.601 70.5165 119.325 70.6193 120.034C70.6551 120.279 70.7135 120.521 70.794 120.756L68.0465 122.088C67.467 121.254 66.5987 120.66 65.6065 120.42C64.6142 120.18 63.5672 120.31 62.664 120.785C61.7608 121.261 61.0645 122.049 60.7072 122.999C60.3498 123.95 60.3564 124.997 60.7255 125.942C61.0947 126.887 61.8009 127.664 62.7099 128.125C63.6189 128.587 64.6675 128.701 65.6566 128.445C66.6458 128.19 67.5066 127.583 68.0756 126.74C68.6446 125.897 68.8823 124.876 68.7434 123.872C68.7077 123.626 68.6492 123.385 68.5687 123.15L71.3162 121.818C71.755 122.447 72.3608 122.943 73.0665 123.252C73.7722 123.56 74.5505 123.669 75.3152 123.566C75.6945 123.512 76.0644 123.406 76.4141 123.251L78.2476 126.191C77.4775 126.833 76.9664 127.729 76.8083 128.714C76.6503 129.699 76.8558 130.707 77.3871 131.552C77.9185 132.398 78.7399 133.024 79.7002 133.316C80.6606 133.607 81.6953 133.545 82.6139 133.139C83.5326 132.734 84.2734 132.013 84.7 131.11C85.1267 130.206 85.2106 129.181 84.9362 128.222C84.6617 127.263 84.0475 126.435 83.2065 125.891C82.3655 125.347 81.3543 125.122 80.3589 125.26C79.9795 125.313 79.6096 125.419 79.2599 125.575L77.4265 122.634C77.852 122.28 78.2022 121.845 78.4565 121.355C78.7108 120.866 78.8641 120.33 78.9073 119.781C78.9506 119.232 78.883 118.68 78.7085 118.157C78.534 117.635 78.2561 117.152 77.8911 116.738L81.8563 112.136C82.6831 112.661 83.6723 112.874 84.6449 112.737C85.5645 112.611 86.4155 112.183 87.0633 111.522C87.7111 110.861 88.1185 110.005 88.2211 109.089C88.3236 108.174 88.1154 107.251 87.6294 106.466C87.1435 105.682 86.4075 105.082 85.5382 104.761C84.6689 104.439 83.7159 104.415 82.8302 104.692C81.9446 104.969 81.1769 105.531 80.6488 106.29C80.1208 107.048 79.8625 107.959 79.915 108.879C79.9675 109.799 80.3277 110.674 80.9386 111.367L76.9734 115.969C76.1467 115.444 75.1574 115.231 74.1848 115.368C73.1184 115.515 72.1498 116.065 71.4803 116.903L66.8613 114.255C67.139 113.593 67.2313 112.869 67.1286 112.16C67.0168 111.349 66.6652 110.59 66.1184 109.978C65.5716 109.367 64.854 108.93 64.0565 108.723C63.2589 108.517 62.4172 108.55 61.6377 108.818C60.8583 109.086 60.1761 109.578 59.6775 110.23C59.1788 110.883 58.8861 111.667 58.8364 112.484C58.7866 113.301 58.9821 114.114 59.398 114.82C59.8139 115.526 60.4316 116.094 61.173 116.451C61.9144 116.808 62.7461 116.939 63.5631 116.827V116.827ZM65.0165 127.367C64.4329 127.447 63.8388 127.354 63.3092 127.099C62.7797 126.844 62.3385 126.438 62.0414 125.934C61.7443 125.43 61.6047 124.849 61.6402 124.265C61.6758 123.682 61.8848 123.122 62.241 122.655C62.5972 122.189 63.0844 121.838 63.6412 121.647C64.198 121.455 64.7992 121.431 65.3689 121.579C65.9386 121.727 66.4511 122.039 66.8417 122.475C67.2323 122.912 67.4834 123.455 67.5632 124.034C67.6662 124.81 67.4565 125.595 66.9796 126.219C66.5028 126.843 65.7973 127.256 65.0165 127.367ZM83.8745 128.953C83.9544 129.532 83.8594 130.122 83.6016 130.648C83.3438 131.174 82.9347 131.613 82.4261 131.909C81.9176 132.204 81.3323 132.344 80.7444 132.309C80.1565 132.275 79.5923 132.068 79.1232 131.716C78.6541 131.363 78.3012 130.88 78.1091 130.327C77.9169 129.775 77.8942 129.178 78.0437 128.613C78.1932 128.047 78.5084 127.538 78.9492 127.149C79.39 126.761 79.9368 126.511 80.5204 126.431C81.3022 126.327 82.0931 126.534 82.7212 127.007C83.3493 127.479 83.7637 128.179 83.8745 128.953V128.953ZM83.676 105.71C84.2596 105.63 84.8537 105.724 85.3833 105.979C85.9128 106.234 86.354 106.639 86.6511 107.143C86.9482 107.648 87.0878 108.228 87.0523 108.812C87.0167 109.396 86.8077 109.956 86.4515 110.422C86.0953 110.888 85.6081 111.239 85.0513 111.431C84.4946 111.623 83.8933 111.646 83.3236 111.498C82.754 111.351 82.2414 111.039 81.8508 110.602C81.4602 110.165 81.2091 109.623 81.1293 109.044C81.0263 108.268 81.236 107.482 81.7129 106.858C82.1898 106.234 82.8953 105.822 83.676 105.71V105.71ZM74.3463 116.539C74.9298 116.459 75.5239 116.552 76.0535 116.807C76.583 117.062 77.0243 117.467 77.3213 117.972C77.6184 118.476 77.758 119.057 77.7225 119.64C77.687 120.224 77.4779 120.784 77.1217 121.25C76.7656 121.717 76.2783 122.068 75.7215 122.259C75.1648 122.451 74.5635 122.474 73.9939 122.327C73.4242 122.179 72.9116 121.867 72.521 121.43C72.1304 120.993 71.8794 120.451 71.7995 119.872C71.6965 119.096 71.9062 118.311 72.3831 117.687C72.86 117.062 73.5655 116.65 74.3463 116.539ZM62.5942 109.8C63.1778 109.719 63.7719 109.813 64.3014 110.068C64.831 110.323 65.2722 110.728 65.5693 111.233C65.8664 111.737 66.006 112.318 65.9704 112.901C65.9349 113.485 65.7258 114.045 65.3697 114.511C65.0135 114.977 64.5262 115.328 63.9695 115.52C63.4127 115.712 62.8115 115.735 62.2418 115.588C61.6721 115.44 61.1596 115.128 60.769 114.691C60.3784 114.254 60.1273 113.712 60.0475 113.133C59.9444 112.357 60.1541 111.572 60.631 110.947C61.1079 110.323 61.8134 109.911 62.5942 109.8V109.8Z" stroke="#DADADA" stroke-width="2.42743" mask="url(#path-4-outside-2_965_7624)"/>
<path d="M67.6944 124.528L77.7295 28.4291C78.0147 25.6984 79.1382 23.1679 80.8529 21.3944C82.5676 19.6208 84.733 18.7495 86.8728 18.9721L139.327 24.4288C140.182 24.5188 140.957 25.0387 141.481 25.8742L156.157 49.2441C156.418 49.6591 156.609 50.1399 156.719 50.6586C156.829 51.1773 156.856 51.7239 156.798 52.2667L148.376 132.921C148.091 135.652 146.967 138.182 145.253 139.956C143.538 141.729 141.372 142.601 139.233 142.378L74.6874 135.663C72.5476 135.441 70.6087 134.143 69.2973 132.054C67.9858 129.966 67.4093 127.259 67.6944 124.528Z" fill="white" stroke="#D7D7D7" stroke-width="1.82057" stroke-linecap="round" stroke-linejoin="round"/>
<path d="M122.6 101.593L122.738 101.464L122.646 101.299C122.044 100.21 121.814 98.9776 121.989 97.7885C122.163 96.5996 122.732 95.5158 123.61 94.6991C124.489 93.8823 125.631 93.3752 126.867 93.2569C128.103 93.1385 129.365 93.4156 130.462 94.0482L130.584 93.8381L130.462 94.0482C131.807 94.8229 132.803 96.0713 133.231 97.5159C133.659 98.96 133.487 100.481 132.755 101.747C132.024 103.012 130.791 103.923 129.324 104.275C127.856 104.628 126.275 104.393 124.93 103.618C124.828 103.559 124.727 103.496 124.627 103.431L124.467 103.326L124.327 103.457L114.294 112.885L114.157 113.014L114.248 113.179C114.782 114.145 115.024 115.225 114.949 116.291C114.874 117.356 114.484 118.364 113.826 119.194C113.169 120.024 112.27 120.642 111.236 120.975C110.201 121.308 109.075 121.34 107.991 121.067C106.908 120.793 105.914 120.225 105.128 119.43C104.343 118.636 103.801 117.65 103.564 116.591C103.328 115.532 103.407 114.444 103.791 113.458C104.174 112.471 104.847 111.626 105.729 111.021L105.889 110.911L105.817 110.731L102.476 102.331L102.401 102.144L102.204 102.182C101.26 102.364 100.272 102.307 99.3322 102.017C98.3926 101.727 97.5331 101.214 96.8343 100.524L96.6972 100.389L96.534 100.492L89.1485 105.142L88.9613 105.26L89.0612 105.457C89.6833 106.684 89.8407 108.064 89.509 109.347C89.1775 110.631 88.3783 111.735 87.2552 112.461C86.1317 113.187 84.7567 113.487 83.3786 113.302C82.0004 113.117 80.7132 112.46 79.7517 111.45C78.7902 110.44 78.2201 109.146 78.1412 107.805C78.0623 106.465 78.4792 105.165 79.3147 104.139C80.1504 103.114 81.3518 102.429 82.7035 102.21C84.0555 101.992 85.4672 102.257 86.6814 102.958C86.8391 103.049 86.9927 103.147 87.1417 103.252L87.274 103.345L87.411 103.258L95.2273 98.3357L95.3848 98.2365L95.33 98.0589C95.0303 97.0885 95.0006 96.0709 95.2422 95.112C95.4839 94.1532 95.9882 93.2865 96.7031 92.6019C97.4181 91.9172 98.3186 91.4386 99.3119 91.2173C100.305 90.996 101.355 91.0402 102.352 91.3469C103.349 91.6536 104.254 92.2111 104.975 92.9612C105.696 93.7112 106.204 94.6255 106.448 95.6081C106.692 96.5904 106.663 97.6051 106.367 98.5468C106.07 99.4885 105.515 100.324 104.76 100.967L104.628 101.08L104.692 101.242L108.143 109.918L108.211 110.087L108.392 110.07C109.62 109.954 110.874 110.23 111.964 110.86C112.066 110.919 112.167 110.982 112.266 111.047L112.427 111.153L112.567 111.021L122.6 101.593ZM86.7606 109.382L86.7607 109.381C87.0718 108.843 87.2069 108.221 87.1504 107.595C87.0939 106.969 86.8487 106.367 86.4478 105.865C86.047 105.363 85.5078 104.981 84.8981 104.768C84.2884 104.556 83.6338 104.52 83.0169 104.668C82.3998 104.817 81.8479 105.142 81.4323 105.606C81.0167 106.07 80.7576 106.649 80.6876 107.27C80.6176 107.891 80.7398 108.524 81.0362 109.089C81.3325 109.655 81.7901 110.128 82.3504 110.451L82.4718 110.241L82.3506 110.451C83.1018 110.882 83.9873 111.015 84.814 110.816C85.6413 110.618 86.3426 110.103 86.7606 109.382ZM99.2782 99.3928L99.2784 99.393C100.03 99.8245 100.915 99.9573 101.742 99.7586C102.569 99.5597 103.27 99.0448 103.688 98.3238L103.689 98.3236C104 97.7855 104.135 97.1635 104.078 96.5372C104.022 95.9111 103.777 95.3093 103.376 94.807C102.975 94.3049 102.436 93.9235 101.826 93.7106C101.216 93.4976 100.562 93.4621 99.9447 93.6104C99.3276 93.7587 98.7757 94.0844 98.3601 94.5481C97.9445 95.0118 97.6855 95.5912 97.6154 96.2122C97.5454 96.8329 97.6676 97.4659 97.964 98.0314C98.2603 98.5968 98.7179 99.0702 99.2782 99.3928ZM126.131 101.541L126.131 101.541C126.882 101.973 127.768 102.105 128.595 101.907C129.422 101.708 130.123 101.193 130.541 100.472L130.541 100.472C130.852 99.9336 130.987 99.3116 130.931 98.6853C130.874 98.0591 130.629 97.4574 130.228 96.9551C129.828 96.4529 129.288 96.0716 128.679 95.8586C128.069 95.6457 127.414 95.6102 126.797 95.7584C126.18 95.9068 125.628 96.2325 125.213 96.6961C124.797 97.1599 124.538 97.7393 124.468 98.3602C124.398 98.981 124.52 99.614 124.817 100.18C125.113 100.745 125.571 101.218 126.131 101.541ZM112.043 117.284L112.043 117.283C112.354 116.745 112.489 116.123 112.433 115.497C112.376 114.871 112.131 114.269 111.73 113.767C111.329 113.265 110.79 112.883 110.181 112.67C109.571 112.457 108.916 112.422 108.299 112.57C107.682 112.718 107.13 113.044 106.715 113.508C106.299 113.972 106.04 114.551 105.97 115.172C105.9 115.793 106.022 116.426 106.319 116.991C106.615 117.557 107.073 118.03 107.633 118.353L107.754 118.143L107.633 118.353C108.384 118.784 109.27 118.917 110.096 118.718C110.924 118.519 111.625 118.005 112.043 117.284Z" fill="#E3E3E3" stroke="#C9C9C9" stroke-width="0.485486"/>
<path d="M92.739 62.8193L92.6458 62.7952L92.5734 62.8585C92.3616 63.0439 92.1346 63.1467 91.8375 63.2797C90.4891 63.8829 88.9559 63.9269 87.5751 63.4018C86.1943 62.8768 85.0791 61.8258 84.4748 60.4802C83.8704 59.1345 83.8264 57.6043 84.3524 56.2261C84.8785 54.848 85.9315 53.7348 87.2799 53.1315C88.6283 52.5282 90.1616 52.4843 91.5424 53.0093C92.9231 53.5344 94.0383 54.5853 94.6427 55.931C95.2808 57.3518 95.2742 58.9141 94.7291 60.254L94.6506 60.4468L94.8525 60.4989L104.969 63.1074L105.062 63.1314L105.134 63.0682C105.346 62.8827 105.573 62.7797 105.849 62.6564L105.849 62.6563C106.86 62.2017 107.984 62.0585 109.077 62.2451C110.17 62.4316 111.182 62.9394 111.985 63.7035C112.787 64.4675 113.342 65.4531 113.58 66.534C113.817 67.6149 113.726 68.742 113.319 69.7711L113.27 69.8943L113.372 69.9786L119.813 75.2781L119.932 75.3765L120.049 75.2746C120.26 75.0895 120.508 74.9773 120.784 74.8535C121.061 74.7298 121.31 74.6199 121.589 74.5855L121.743 74.5665L121.749 74.4121L122.07 66.0871L122.075 65.9564L121.953 65.9099C120.596 65.3938 119.432 64.3783 118.794 62.9583C118.147 61.5175 118.173 59.9444 118.679 58.62L118.715 58.5258L118.654 58.4453L109.224 46.012L109.106 45.8562L108.959 45.9849C108.748 46.1701 108.5 46.2823 108.223 46.406C106.875 47.0093 105.342 47.0532 103.961 46.5282C102.58 46.0032 101.465 44.9522 100.861 43.6065C100.256 42.2609 100.212 40.7306 100.738 39.3525C101.264 37.9743 102.317 36.8611 103.666 36.2579C105.014 35.6546 106.547 35.6107 107.928 36.1357C109.309 36.6607 110.424 37.7117 111.028 39.0574C111.667 40.4782 111.66 42.0405 111.115 43.3804L111.076 43.4766L111.139 43.5592L120.62 55.9946L120.738 56.1498L120.885 56.0214C121.096 55.8359 121.324 55.733 121.599 55.6097C121.874 55.487 122.104 55.3847 122.408 55.3411L122.477 55.3311L122.522 55.2769L132.236 43.5127L132.401 43.3125L132.156 43.2255C130.791 42.7401 129.619 41.7055 128.98 40.2846C128.681 39.6183 128.516 38.8997 128.495 38.1698C128.474 37.4399 128.598 36.713 128.858 36.0306C129.119 35.3482 129.511 34.7237 130.013 34.1927C130.516 33.6617 131.118 33.2347 131.786 32.936C133.134 32.3327 134.667 32.2888 136.048 32.8138C137.429 33.3388 138.544 34.3898 139.148 35.7355C139.753 37.0811 139.797 38.6114 139.271 39.9895C138.745 41.3677 137.692 42.4809 136.343 43.0841C136.046 43.2171 135.818 43.3178 135.539 43.3522L135.467 43.3611L135.42 43.417L125.728 55.1718L125.564 55.3697L125.806 55.4583C127.151 55.9531 128.315 56.9675 128.962 58.4092C129.567 59.7548 129.611 61.285 129.085 62.6632C128.558 64.0413 127.505 65.1545 126.157 65.7578C125.864 65.8891 125.652 65.9833 125.325 66.0363L125.178 66.0601L125.172 66.2087L124.85 74.5336L124.845 74.6673L124.971 74.7122C126.336 75.1976 127.509 76.2322 128.147 77.653C128.752 78.9987 128.796 80.5289 128.27 81.9071C127.743 83.2852 126.69 84.3984 125.342 85.0017C123.994 85.605 122.46 85.6489 121.08 85.1239C119.699 84.5988 118.584 83.5479 117.979 82.2022C117.332 80.761 117.347 79.219 117.884 77.8563L117.933 77.7331L117.83 77.649L111.399 72.3705L111.284 72.2761L111.169 72.3697C110.912 72.5781 110.7 72.6733 110.407 72.8046C109.058 73.4079 107.525 73.4518 106.144 72.9268C104.763 72.4017 103.648 71.3508 103.044 70.0051C102.397 68.5642 102.423 66.9912 102.929 65.6668L103.001 65.4768L102.804 65.4257L92.739 62.8193ZM136.331 36.9961C135.772 35.7514 134.295 35.1902 133.048 35.7479C131.802 36.3057 131.239 37.7792 131.798 39.024C132.357 40.2687 133.834 40.8299 135.08 40.2722C136.327 39.7145 136.89 38.2409 136.331 36.9961ZM104.929 39.0698C103.682 39.6275 103.119 41.1011 103.678 42.3459C104.237 43.5906 105.714 44.1518 106.96 43.5941C108.207 43.0363 108.77 41.5628 108.211 40.318C107.652 39.0733 106.175 38.5121 104.929 39.0698ZM124.894 62.9459C126.141 62.3881 126.703 60.9146 126.144 59.6698C125.585 58.4251 124.109 57.8639 122.862 58.4216C121.616 58.9793 121.053 60.4529 121.612 61.6977C122.171 62.9424 123.648 63.5036 124.894 62.9459ZM124.079 82.1898C125.326 81.632 125.888 80.1584 125.329 78.9137C124.77 77.6689 123.294 77.1077 122.047 77.6655C120.801 78.2232 120.238 79.6968 120.797 80.9415C121.356 82.1863 122.833 82.7475 124.079 82.1898ZM109.144 69.9927C110.39 69.4349 110.953 67.9614 110.394 66.7166C109.835 65.4718 108.359 64.9106 107.112 65.4684C105.865 66.0261 105.303 67.4997 105.862 68.7444C106.421 69.9892 107.897 70.5504 109.144 69.9927ZM91.825 57.1917C91.2659 55.9469 89.7894 55.3857 88.5428 55.9434C87.2962 56.5012 86.7335 57.9747 87.2925 59.2195C87.8515 60.4643 89.3281 61.0255 90.5747 60.4677C91.8213 59.91 92.384 58.4364 91.825 57.1917Z" fill="#E3E3E3" stroke="#C8C8C8" stroke-width="0.364114"/>
<path d="M140.778 25.3867L136.97 42.0858C136.792 42.8673 136.946 43.6907 137.398 44.3748C137.851 45.0589 138.564 45.5476 139.382 45.7334L156.252 49.5658" fill="white" stroke="#D7D7D7" stroke-width="1.82057" stroke-linecap="round" stroke-linejoin="round"/>
<circle cx="140.791" cy="123.8" r="35.1977" fill="white" stroke="#C7D6E1" stroke-width="2.42743"/>
<path d="M140.506 143.867C142.513 143.867 144.14 142.243 144.14 140.24C144.14 138.237 142.513 136.613 140.506 136.613C138.499 136.613 136.872 138.237 136.872 140.24C136.872 142.243 138.499 143.867 140.506 143.867Z" fill="#C7D6E1"/>
<path d="M136.973 104.077C136.918 102.7 138.02 101.553 139.399 101.553H141.613C142.992 101.553 144.094 102.7 144.038 104.077L143.022 129.446C142.97 130.748 141.899 131.777 140.596 131.777H140.415C139.113 131.777 138.042 130.748 137.99 129.446L136.973 104.077Z" fill="#C7D6E1"/>
<rect x="27.3366" y="3.35085" width="6.06857" height="19.4194" rx="3.03429" transform="rotate(-2.71687 27.3366 3.35085)" fill="#D9E5EE" stroke="#C7D6E1" stroke-width="1.21371"/>
<rect x="8.13267" y="19.0311" width="6.06857" height="19.4194" rx="3.03429" transform="rotate(-52.7235 8.13267 19.0311)" fill="#D9E5EE" stroke="#C7D6E1" stroke-width="1.21371"/>
<rect x="1.24407" y="42.5506" width="6.06857" height="19.4194" rx="3.03429" transform="rotate(-95.5059 1.24407 42.5506)" fill="#D9E5EE" stroke="#C7D6E1" stroke-width="1.21371"/>
<rect x="209.646" y="114.189" width="6.06857" height="19.4194" rx="3.03429" transform="rotate(110.405 209.646 114.189)" fill="#D9E5EE" stroke="#C7D6E1" stroke-width="1.21371"/>
<rect x="202.767" y="90.3704" width="6.06857" height="19.4194" rx="3.03429" transform="rotate(60.3985 202.767 90.3704)" fill="#D9E5EE" stroke="#C7D6E1" stroke-width="1.21371"/>
<rect x="183.842" y="74.7972" width="6.06857" height="19.4194" rx="3.03429" transform="rotate(17.616 183.842 74.7972)" fill="#D9E5EE" stroke="#C7D6E1" stroke-width="1.21371"/>
</svg>
