<svg width="24" height="24" viewBox="0 0 24 24" fill="none" xmlns="http://www.w3.org/2000/svg">
<path d="M6 16.5C6 16.2239 6.22386 16 6.5 16H17.5C17.7761 16 18 16.2239 18 16.5V17.5C18 17.7761 17.7761 18 17.5 18H6.5C6.22386 18 6 17.7761 6 17.5V16.5ZM5.5 13C5.77614 13 6 13.2239 6 13.5V14.5C6 14.7761 5.77614 15 5.5 15H2.5C2.22386 15 2 14.7761 2 14.5V13.5C2 13.2239 2.22386 13 2.5 13H5.5ZM7.5 15C7.22386 15 7 14.7761 7 14.5V13.5C7 13.2239 7.22386 13 7.5 13H9.5C9.77614 13 10 13.2239 10 13.5V14.5C10 14.7761 9.77614 15 9.5 15H7.5ZM11.5 15C11.2239 15 11 14.7761 11 14.5V13.5C11 13.2239 11.2239 13 11.5 13H12.5C12.7761 13 13 13.2239 13 13.5V14.5C13 14.7761 12.7761 15 12.5 15H11.5ZM14.5 15C14.2239 15 14 14.7761 14 14.5V13.5C14 13.2239 14.2239 13 14.5 13H16.5C16.7761 13 17 13.2239 17 13.5V14.5C17 14.7761 16.7761 15 16.5 15H14.5ZM18.5 15C18.2239 15 18 14.7761 18 14.5V13.5C18 13.2239 18.2239 13 18.5 13H21.5C21.7761 13 22 13.2239 22 13.5V14.5C22 14.7761 21.7761 15 21.5 15H18.5ZM2 10.5C2 10.2239 2.22386 10 2.5 10H4.5C4.77614 10 5 10.2239 5 10.5V11.5C5 11.7761 4.77614 12 4.5 12H2.5C2.22386 12 2 11.7761 2 11.5V10.5ZM19.5 12C19.2239 12 19 11.7761 19 11.5V10.5C19 10.2239 19.2239 10 19.5 10H21.5C21.7761 10 22 10.2239 22 10.5V11.5C22 11.7761 21.7761 12 21.5 12H19.5ZM18 11.5C18 11.7761 17.7761 12 17.5 12H16.5C16.2239 12 16 11.7761 16 11.5V10.5C16 10.2239 16.2239 10 16.5 10H17.5C17.7761 10 18 10.2239 18 10.5V11.5ZM8 11.5C8 11.7761 7.77614 12 7.5 12H6.5C6.22386 12 6 11.7761 6 11.5V10.5C6 10.2239 6.22386 10 6.5 10H7.5C7.77614 10 8 10.2239 8 10.5V11.5ZM12 11.5C12 11.7761 11.7761 12 11.5 12H9.5C9.22386 12 9 11.7761 9 11.5V10.5C9 10.2239 9.22386 10 9.5 10H11.5C11.7761 10 12 10.2239 12 10.5V11.5ZM15 11.5C15 11.7761 14.7761 12 14.5 12H13.5C13.2239 12 13 11.7761 13 11.5V10.5C13 10.2239 13.2239 10 13.5 10H14.5C14.7761 10 15 10.2239 15 10.5V11.5ZM2.5 9C2.22386 9 2 8.77614 2 8.5V7.5C2 7.22386 2.22386 7 2.5 7H3.5C3.77614 7 4 7.22386 4 7.5V8.5C4 8.77614 3.77614 9 3.5 9H2.5ZM5.5 9C5.22386 9 5 8.77614 5 8.5V7.5C5 7.22386 5.22386 7 5.5 7H6.5C6.77614 7 7 7.22386 7 7.5V8.5C7 8.77614 6.77614 9 6.5 9H5.5ZM8.5 9C8.22386 9 8 8.77614 8 8.5V7.5C8 7.22386 8.22386 7 8.5 7H9.5C9.77614 7 10 7.22386 10 7.5V8.5C10 8.77614 9.77614 9 9.5 9H8.5ZM11.5 9C11.2239 9 11 8.77614 11 8.5V7.5C11 7.22386 11.2239 7 11.5 7H12.5C12.7761 7 13 7.22386 13 7.5V8.5C13 8.77614 12.7761 9 12.5 9H11.5ZM14.5 9C14.2239 9 14 8.77614 14 8.5V7.5C14 7.22386 14.2239 7 14.5 7H15.5C15.7761 7 16 7.22386 16 7.5V8.5C16 8.77614 15.7761 9 15.5 9H14.5ZM17.5 9C17.2239 9 17 8.77614 17 8.5V7.5C17 7.22386 17.2239 7 17.5 7H21.5C21.7761 7 22 7.22386 22 7.5V8.5C22 8.77614 21.7761 9 21.5 9H17.5Z" fill="#363636"/>
</svg>
