<svg width="24" height="24" viewBox="0 0 24 24" fill="none" xmlns="http://www.w3.org/2000/svg">
<path d="M6.624 7.71443C6.4585 7.71443 6.29979 7.78017 6.18276 7.89719C6.06574 8.01421 6 8.17293 6 8.33842V8.37614C6 8.72071 6.27943 9.00014 6.624 9.00014H11.376C11.5415 9.00014 11.7002 8.9344 11.8172 8.81737C11.9343 8.70035 12 8.54163 12 8.37614V8.33842C12 8.17293 11.9343 8.01421 11.8172 7.89719C11.7002 7.78017 11.5415 7.71443 11.376 7.71443H6.624ZM6.624 11.143C6.4585 11.143 6.29979 11.2087 6.18276 11.3258C6.06574 11.4428 6 11.6015 6 11.767V11.8047C6 12.1493 6.27943 12.4287 6.624 12.4287H15.6617C15.8272 12.4287 15.9859 12.363 16.1029 12.2459C16.22 12.1289 16.2857 11.9702 16.2857 11.8047V11.767C16.2857 11.6015 16.22 11.4428 16.1029 11.3258C15.9859 11.2087 15.8272 11.143 15.6617 11.143H6.624ZM6 15.1956C6 14.851 6.27943 14.5716 6.624 14.5716H13.0903C13.4349 14.5716 13.7143 14.851 13.7143 15.1956V15.2333C13.7143 15.3988 13.6485 15.5575 13.5315 15.6745C13.4145 15.7915 13.2558 15.8573 13.0903 15.8573H6.624C6.54205 15.8573 6.46091 15.8411 6.3852 15.8098C6.3095 15.7784 6.24071 15.7325 6.18276 15.6745C6.12482 15.6166 6.07886 15.5478 6.0475 15.4721C6.01614 15.3964 6 15.3152 6 15.2333V15.1956ZM4.932 3.42871C4.07952 3.42871 3.26195 3.76736 2.65915 4.37015C2.05636 4.97295 1.71771 5.79051 1.71771 6.643V17.3573C1.71771 18.2098 2.05636 19.0273 2.65915 19.6301C3.26195 20.2329 4.07952 20.5716 4.932 20.5716H19.0714C19.9239 20.5716 20.7415 20.2329 21.3443 19.6301C21.9471 19.0273 22.2857 18.2098 22.2857 17.3573V6.643C22.2857 5.79051 21.9471 4.97295 21.3443 4.37015C20.7415 3.76736 19.9239 3.42871 19.0714 3.42871H4.932ZM3.00343 6.643C3.00343 6.13151 3.20661 5.64097 3.56829 5.27929C3.92997 4.91761 4.42051 4.71443 4.932 4.71443H19.0714C19.5829 4.71443 20.0735 4.91761 20.4351 5.27929C20.7968 5.64097 21 6.13151 21 6.643V17.3573C21 17.8688 20.7968 18.3593 20.4351 18.721C20.0735 19.0827 19.5829 19.2859 19.0714 19.2859H4.93286C4.42137 19.2859 3.93083 19.0827 3.56915 18.721C3.20747 18.3593 3.00428 17.8688 3.00428 17.3573V6.643H3.00343Z" fill="#363636"/>
</svg>
