<svg width="24" height="24" viewBox="0 0 24 24" fill="none" xmlns="http://www.w3.org/2000/svg">
<path d="M12.7 19.2996L19.3 12.6996C19.4 12.5996 19.471 12.4913 19.513 12.3746C19.5543 12.2579 19.575 12.1329 19.575 11.9996C19.575 11.8663 19.5543 11.7413 19.513 11.6246C19.471 11.5079 19.4 11.3996 19.3 11.2996L12.7 4.69959C12.5166 4.51626 12.2876 4.42026 12.013 4.41159C11.7376 4.40359 11.5 4.49959 11.3 4.69959C11.1 4.88293 10.9956 5.11193 10.987 5.38659C10.979 5.66193 11.075 5.89959 11.275 6.09959L16.175 10.9996H4.99995C4.71662 10.9996 4.47895 11.0953 4.28695 11.2866C4.09562 11.4786 3.99995 11.7163 3.99995 11.9996C3.99995 12.2829 4.09562 12.5203 4.28695 12.7116C4.47895 12.9036 4.71662 12.9996 4.99995 12.9996H16.175L11.275 17.8996C11.0916 18.0829 10.9956 18.3163 10.987 18.5996C10.979 18.8829 11.075 19.1163 11.275 19.2996C11.4583 19.4996 11.6916 19.5996 11.975 19.5996C12.2583 19.5996 12.5 19.4996 12.7 19.2996Z" fill="#363636"/>
</svg>
