<svg width="24" height="24" viewBox="0 0 24 24" fill="none" xmlns="http://www.w3.org/2000/svg">
<path d="M2 4.85714C2 4.09938 2.30102 3.37266 2.83684 2.83684C3.37266 2.30102 4.09938 2 4.85714 2H16.8271C17.5848 2.00016 18.3115 2.30129 18.8471 2.83714L21.1629 5.15286C21.6987 5.68855 21.9998 6.41516 22 7.17286V19.1429C22 19.9006 21.699 20.6273 21.1632 21.1632C20.6273 21.699 19.9006 22 19.1429 22H4.85714C4.09938 22 3.37266 21.699 2.83684 21.1632C2.30102 20.6273 2 19.9006 2 19.1429V4.85714ZM4.85714 3.42857C4.47826 3.42857 4.1149 3.57908 3.84699 3.84699C3.57908 4.1149 3.42857 4.47826 3.42857 4.85714V19.1429C3.42857 19.5217 3.57908 19.8851 3.84699 20.153C4.1149 20.4209 4.47826 20.5714 4.85714 20.5714V14.1429C4.85714 13.5745 5.08291 13.0295 5.48477 12.6276C5.88663 12.2258 6.43168 12 7 12H17C17.5683 12 18.1134 12.2258 18.5152 12.6276C18.9171 13.0295 19.1429 13.5745 19.1429 14.1429V20.5714C19.5217 20.5714 19.8851 20.4209 20.153 20.153C20.4209 19.8851 20.5714 19.5217 20.5714 19.1429V7.17286C20.5713 6.79401 20.4208 6.4307 20.1529 6.16286L17.8371 3.84714C17.5693 3.57922 17.206 3.42865 16.8271 3.42857H16.2857V7C16.2857 7.56832 16.0599 8.11337 15.6581 8.51523C15.2562 8.91709 14.7112 9.14286 14.1429 9.14286H8.42857C7.86025 9.14286 7.31521 8.91709 6.91334 8.51523C6.51148 8.11337 6.28571 7.56832 6.28571 7V3.42857H4.85714ZM7.71429 3.42857V7C7.71429 7.18944 7.78954 7.37112 7.9235 7.50508C8.05745 7.63903 8.23913 7.71429 8.42857 7.71429H14.1429C14.3323 7.71429 14.514 7.63903 14.6479 7.50508C14.7819 7.37112 14.8571 7.18944 14.8571 7V3.42857H7.71429ZM17.7143 20.5714V14.1429C17.7143 13.9534 17.639 13.7717 17.5051 13.6378C17.3711 13.5038 17.1894 13.4286 17 13.4286H7C6.81056 13.4286 6.62888 13.5038 6.49492 13.6378C6.36097 13.7717 6.28571 13.9534 6.28571 14.1429V20.5714H17.7143Z" fill="#363636"/>
</svg>
