<?xml version="1.0" encoding="utf-8"?>
<svg xmlns="http://www.w3.org/2000/svg" viewBox="104.035 115.627 18.2929 25.9581" width="18.2929px" height="25.9581px">
    <ellipse style="fill: rgb(216, 216, 216); stroke: rgb(0, 0, 0);" cx="106.455" cy="118.047" rx="2.42" ry="2.42"/>
    <rect x="105.098" y="121.879" width="2.714" height="18.548" style="fill: rgb(216, 216, 216); stroke: rgb(0, 0, 0); stroke-width: 0px; paint-order: stroke;"/>
    <path d="M 117.18 120.207 L 111.092 127.54 C 110.788 127.907 110.758 128.387 111.023 128.61 C 111.291 128.831 111.758 128.712 112.063 128.347 L 118.151 121.012 L 119.02 121.734 C 119.238 121.915 119.644 121.644 119.661 121.309 L 119.842 118.332 C 119.851 118.125 119.7 118 119.498 118.046 L 116.606 118.774 C 116.28 118.851 116.092 119.304 116.306 119.481 L 117.18 120.207 Z" fill="#363636" style="transform-origin: 115.342px 123.379px;" transform="matrix(0.642787, 0.766045, -0.766045, 0.642787, 0.000419889259, -0.000029320194)"/>
    <path d="M 117.179 131.532 L 111.091 138.865 C 110.787 139.231 110.757 139.712 111.024 139.934 C 111.291 140.156 111.758 140.037 112.062 139.671 L 118.15 132.337 L 119.019 133.059 C 119.237 133.24 119.643 132.969 119.659 132.634 L 119.842 129.658 C 119.849 129.45 119.699 129.326 119.497 129.371 L 116.606 130.099 C 116.279 130.176 116.092 130.629 116.306 130.806 L 117.179 131.532 Z" fill="#363636" style="transform-origin: 115.342px 134.704px;" transform="matrix(-0.642788, -0.766044, 0.766044, -0.642788, -0.000051654571, 0.000035161406)"/>
</svg>
