<svg width="24" height="24" viewBox="0 0 24 24" fill="none" xmlns="http://www.w3.org/2000/svg">
<path d="M21.5306 21.5308L21.6366 21.637C21.7203 21.5534 21.7867 21.4541 21.832 21.3449C21.8773 21.2356 21.9006 21.1185 21.9006 21.0002C21.9006 20.8819 21.8773 20.7648 21.832 20.6556C21.7867 20.5463 21.7203 20.4471 21.6367 20.3635C21.6366 20.3635 21.6366 20.3635 21.6366 20.3635L17.0387 15.7664C18.3658 14.1193 19.0247 12.0307 18.8803 9.91694C18.7329 7.75756 17.7587 5.73814 16.1602 4.27879C14.5618 2.81943 12.4623 2.03249 10.2985 2.08167C8.13463 2.13084 6.07304 3.01235 4.54257 4.54282C3.01211 6.07328 2.1306 8.13487 2.08142 10.2987C2.03224 12.4626 2.81919 14.5621 4.27854 16.1605C5.7379 17.7589 7.75731 18.7332 9.91669 18.8806C12.0304 19.0249 14.119 18.3661 15.7662 17.0389L20.3632 21.6368C20.3632 21.6369 20.3633 21.6369 20.3633 21.6369C20.4468 21.7206 20.5461 21.7869 20.6553 21.8322C20.7646 21.8775 20.8817 21.9008 21 21.9008C21.1182 21.9008 21.2354 21.8775 21.3446 21.8322C21.4539 21.7869 21.5531 21.7205 21.6367 21.6368L21.5306 21.5308ZM21.5306 21.5308C21.6003 21.4612 21.6556 21.3785 21.6934 21.2874C21.7311 21.1964 21.7506 21.0988 21.7506 21.0002C21.7506 20.9017 21.7311 20.8041 21.6934 20.713C21.6556 20.622 21.6003 20.5392 21.5306 20.4696L20.4693 21.5308C20.539 21.6006 20.6217 21.6559 20.7128 21.6936C20.8038 21.7314 20.9014 21.7508 21 21.7508C21.0985 21.7508 21.1961 21.7314 21.2872 21.6936C21.3782 21.6559 21.4609 21.6006 21.5306 21.5308ZM14.1364 11.1366C14.3052 10.9678 14.4 10.7389 14.4 10.5002C14.4 10.2615 14.3052 10.0326 14.1364 9.86382C13.9676 9.69504 13.7387 9.60021 13.5 9.60021H11.4V7.50021C11.4 7.26152 11.3051 7.0326 11.1364 6.86382C10.9676 6.69504 10.7387 6.60021 10.5 6.60021C10.2613 6.60021 10.0324 6.69504 9.86357 6.86382C9.69479 7.0326 9.59997 7.26152 9.59997 7.50021V9.60021H7.49997C7.26128 9.60021 7.03236 9.69504 6.86357 9.86382C6.69479 10.0326 6.59997 10.2615 6.59997 10.5002C6.59997 10.7389 6.69479 10.9678 6.86357 11.1366C7.03236 11.3054 7.26128 11.4002 7.49997 11.4002H9.59997V13.5002C9.59997 13.7389 9.69479 13.9678 9.86357 14.1366C10.0324 14.3054 10.2613 14.4002 10.5 14.4002C10.7387 14.4002 10.9676 14.3054 11.1364 14.1366C11.3051 13.9678 11.4 13.7389 11.4 13.5002V11.4002H13.5C13.7387 11.4002 13.9676 11.3054 14.1364 11.1366ZM14.1667 15.9879C13.0814 16.7131 11.8054 17.1002 10.5001 17.1002C8.75026 17.0983 7.07261 16.4023 5.83526 15.1649C4.59793 13.9276 3.90194 12.25 3.89997 10.5002C3.89998 9.19482 4.28706 7.9188 5.01227 6.83345C5.73749 5.74809 6.76827 4.90215 7.97426 4.40261C9.18025 3.90307 10.5073 3.77237 11.7876 4.02703C13.0678 4.28169 14.2438 4.91028 15.1669 5.83331C16.0899 6.75634 16.7185 7.93234 16.9732 9.21262C17.2278 10.4929 17.0971 11.8199 16.5976 13.0259C16.098 14.2319 15.2521 15.2627 14.1667 15.9879Z" fill="#363636" stroke="#363636" stroke-width="0.3"/>
</svg>
