<svg width="24" height="24" viewBox="0 0 24 24" fill="none" xmlns="http://www.w3.org/2000/svg">
<path d="M3 20.7665L4.58313 19.2215M21 3.2002L19.0916 5.06264M6.66506 17.1897L11.9241 12.0574M6.66506 17.1897C4.8562 15.4563 4.43838 13.607 4.44228 12.0574M6.66506 17.1897L4.58313 19.2215M17.1831 6.92509C16.0337 5.69417 14.3422 4.58815 11.2843 4.58815C9.72289 4.58815 8.06386 5.20911 6.66506 6.40983M17.1831 6.92509L11.9241 12.0574M17.1831 6.92509L19.0916 5.06264M11.9241 12.0574L6.66506 6.40983M11.9241 12.0574H4.44228M11.9241 12.0574L18.5 18.5M11.9241 12.0574H19.1023M6.66506 6.40983C5.73513 7.20808 4.88916 8.81706 4.69157 9.70622C4.49398 10.5954 4.44459 11.1398 4.44228 12.0574M4.58313 19.2215H16.5H19.1023V17V12.0574M19.0916 5.06264L19.1023 12.0574" stroke="#585858" stroke-width="2"/>
<path d="M3 20.7665L4.58313 19.2215L6.66506 17.1897L11.9241 12.0574L17.1831 6.92509L19.0916 5.06264L21 3.2002" stroke="#363636" stroke-width="2" stroke-linecap="round"/>
</svg>
