<svg width="24" height="24" viewBox="0 0 24 24" fill="none" xmlns="http://www.w3.org/2000/svg">
<path d="M12.0074 11L12 4M12 4L9.5 7M12 4L14.5 7" stroke="#363636" stroke-linecap="round" stroke-linejoin="round"/>
<path d="M8.32607 16.8594V16.7594H8.22607H5.9711H5.8711V16.8594V17.5898V17.6898H5.9711H7.10664V18.6756C7.06725 18.7101 7.01456 18.7482 6.947 18.7894C6.87136 18.8346 6.76344 18.8771 6.61943 18.9148C6.48066 18.9485 6.29799 18.9664 6.06896 18.9664C5.8417 18.9664 5.64108 18.9269 5.46534 18.85C5.29015 18.7708 5.14124 18.6547 5.01787 18.5005C4.8968 18.3457 4.80155 18.1536 4.73382 17.9217C4.66893 17.6902 4.63574 17.4224 4.63574 17.1172V16.7148C4.63574 16.4138 4.66506 16.1488 4.72247 15.9188C4.77987 15.6888 4.86368 15.4977 4.97206 15.343C5.08213 15.1898 5.21863 15.0748 5.38225 14.9964C5.54587 14.9181 5.73859 14.8773 5.96294 14.8773C6.22752 14.8773 6.43266 14.9214 6.58471 15.0023L6.5847 15.0024L6.58633 15.0032C6.74472 15.0838 6.86321 15.1935 6.94523 15.3322L6.94523 15.3322L6.94589 15.3333C7.03375 15.4775 7.09355 15.6423 7.12429 15.8288L7.13809 15.9125H7.22295H8.22607H8.34008L8.32522 15.7995C8.27729 15.4348 8.16268 15.1082 7.98015 14.8213C7.79524 14.5307 7.53301 14.3053 7.19728 14.1444C6.86144 13.9795 6.44291 13.9 5.94663 13.9C5.55538 13.9 5.20121 13.9629 4.88574 14.0908C4.57295 14.2162 4.30476 14.4019 4.08236 14.6478C3.85998 14.8935 3.69042 15.1924 3.57243 15.5423L3.57243 15.5423L3.57227 15.5427C3.45681 15.8907 3.4 16.2845 3.4 16.7227V17.1172C3.4 17.5588 3.46248 17.956 3.58945 18.3074L3.58953 18.3077C3.71607 18.6551 3.89556 18.9525 4.12891 19.1978L4.12933 19.1983C4.36514 19.4432 4.64504 19.6295 4.96794 19.7571L4.96862 19.7573C5.29134 19.8821 5.64491 19.9437 6.02818 19.9437C6.47203 19.9437 6.84843 19.8976 7.15474 19.8025C7.45451 19.7095 7.70023 19.5975 7.88829 19.4645L7.88849 19.4643C8.0715 19.3341 8.21192 19.2106 8.30457 19.0932L8.32607 19.066V19.0312V16.8594ZM10.9025 17.8992L10.0609 14.0567L10.0436 13.9781H9.96318H8.94783H8.82079L8.85063 14.1016L10.2248 19.7891L10.2433 19.8656H10.322H10.558H10.6727H11.0071H11.1138H11.317H11.393L11.4133 19.7924L12.4611 16.0205L13.4918 19.792L13.5119 19.8656H13.5883H13.7908H13.8982H14.2325H14.347H14.5832H14.6619L14.6804 19.7891L16.0546 14.1016L16.0845 13.9781H15.9574H14.938H14.8574L14.8403 14.0569L14.0065 17.9023L12.9877 14.0525L12.968 13.9781H12.891H12.7567H12.6504H12.2793H12.1734H12.0306H11.9539L11.934 14.0522L10.9025 17.8992ZM17.3784 13.9781H16.7159H16.6159V14.0781V19.7656V19.8656H16.7159H17.7394H17.8394V19.7656V17.4437H20.1615H20.2615V17.3438V16.5664V16.4664H20.1615H17.8394V14.9594H20.5H20.6V14.8594V14.0781V13.9781H20.5H17.8394H17.7394H17.4784H17.3784Z" fill="#363636" stroke="#363636" stroke-width="0.2"/>
</svg>
