<svg width="24" height="24" viewBox="0 0 24 24" fill="none" xmlns="http://www.w3.org/2000/svg">
<path d="M10.875 19.2996L4.275 12.6996C4.175 12.5996 4.104 12.4913 4.062 12.3746C4.02067 12.2579 4 12.1329 4 11.9996C4 11.8663 4.02067 11.7413 4.062 11.6246C4.104 11.5079 4.175 11.3996 4.275 11.2996L10.875 4.69959C11.0583 4.51626 11.2873 4.42026 11.562 4.41159C11.8373 4.40359 12.075 4.49959 12.275 4.69959C12.475 4.88293 12.5793 5.11193 12.588 5.38659C12.596 5.66193 12.5 5.89959 12.3 6.09959L7.4 10.9996H18.575C18.8583 10.9996 19.096 11.0953 19.288 11.2866C19.4793 11.4786 19.575 11.7163 19.575 11.9996C19.575 12.2829 19.4793 12.5203 19.288 12.7116C19.096 12.9036 18.8583 12.9996 18.575 12.9996H7.4L12.3 17.8996C12.4833 18.0829 12.5793 18.3163 12.588 18.5996C12.596 18.8829 12.5 19.1163 12.3 19.2996C12.1167 19.4996 11.8833 19.5996 11.6 19.5996C11.3167 19.5996 11.075 19.4996 10.875 19.2996Z" fill="#363636"/>
</svg>
