<svg width="24" height="24" viewBox="0 0 24 24" fill="none" xmlns="http://www.w3.org/2000/svg">
<path d="M19.3333 15.0484C20.3058 15.0484 21.2384 15.4409 21.9261 16.1396C22.6137 16.8384 23 17.786 23 18.7742C23 19.7623 22.6137 20.71 21.9261 21.4087C21.2384 22.1075 20.3058 22.5 19.3333 22.5C18.3609 22.5 17.4282 22.1075 16.7406 21.4087C16.053 20.71 15.6667 19.7623 15.6667 18.7742C15.6667 17.786 16.053 16.8384 16.7406 16.1396C17.4282 15.4409 18.3609 15.0484 19.3333 15.0484ZM17.7287 17.0576L17.682 17.0969L17.644 17.1443C17.6056 17.2009 17.585 17.268 17.585 17.3367C17.585 17.3635 17.5881 17.39 17.5942 17.4157C17.6037 17.4561 17.6205 17.4946 17.644 17.5291L17.6827 17.5765L18.8627 18.7749L17.8627 19.7898L17.684 19.9712L17.646 20.0186C17.6076 20.0752 17.587 20.1423 17.587 20.211C17.587 20.2797 17.6076 20.3468 17.646 20.4034L17.684 20.4508L17.7307 20.4894C17.7863 20.5285 17.8524 20.5494 17.92 20.5494C17.9876 20.5494 18.0537 20.5285 18.1093 20.4894L18.156 20.4508L18.4054 20.1788L19.3333 19.1666L20.1678 20.0757L20.5133 20.4522L20.5593 20.4915C20.615 20.5305 20.681 20.5514 20.7487 20.5514C20.8163 20.5514 20.8823 20.5305 20.938 20.4915L20.9847 20.4522L21.0227 20.4047C21.0611 20.3482 21.0817 20.2811 21.0817 20.2124C21.0817 20.1436 21.0611 20.0765 21.0227 20.02L20.9847 19.9725L20.6561 19.639L19.8047 18.7749L20.9166 17.6463L20.986 17.5758L21.0247 17.5291C21.0632 17.4725 21.0839 17.4052 21.0839 17.3364C21.0839 17.2675 21.0632 17.2003 21.0247 17.1436L20.986 17.0969L20.94 17.0576C20.8843 17.0184 20.8181 16.9974 20.7503 16.9974C20.6826 16.9974 20.6164 17.0184 20.5607 17.0576L20.5385 17.0766L20.5147 17.0969L19.3333 18.2959L18.1533 17.0969L18.108 17.0576C18.0604 17.0242 18.0051 17.0039 17.9475 16.9988C17.9429 16.9984 17.9383 16.9981 17.9338 16.9979C17.8807 16.9954 17.8277 17.0059 17.7793 17.0285L17.7287 17.0576Z" fill="#363636"/>
<path fill-rule="evenodd" clip-rule="evenodd" d="M19.1961 15.2143C18.448 15.2123 17.7242 15.4861 17.1569 15.9857L14.4797 13.8536C14.6947 13.411 14.8057 12.923 14.8039 12.4286C14.8039 12.3 14.7935 12.1714 14.783 12.0429L16.4771 11.4643C16.8569 12.1401 17.4634 12.6515 18.1839 12.9031C18.9043 13.1547 19.6895 13.1294 20.3931 12.8318C21.0966 12.5343 21.6706 11.9849 22.0081 11.2859C22.3456 10.5869 22.4235 9.78601 22.2274 9.03251C22.0313 8.279 21.5745 7.62425 20.9421 7.19023C20.3097 6.75622 19.5449 6.57254 18.7902 6.67344C18.0354 6.77434 17.3422 7.15292 16.8397 7.73865C16.3372 8.32438 16.0597 9.0773 16.0588 9.85714C16.0588 9.98571 16.0693 10.1143 16.0797 10.2429L14.3856 10.8214C14.1101 10.3325 13.7137 9.92653 13.2364 9.6444C12.7591 9.36227 12.2177 9.21392 11.6667 9.21428C11.438 9.2121 11.2099 9.23727 10.9869 9.28928L10.1399 7.32857C10.7484 6.88256 11.1814 6.2284 11.3606 5.48411C11.5398 4.73982 11.4534 3.95442 11.1171 3.26961C10.7808 2.5848 10.2167 2.04569 9.52659 1.74954C8.83645 1.45339 8.06572 1.4197 7.35347 1.65456C6.64122 1.88942 6.03435 2.37735 5.64236 3.03033C5.25036 3.68331 5.09906 4.45832 5.21574 5.21554C5.33243 5.97276 5.70941 6.66233 6.27869 7.15981C6.84796 7.6573 7.57203 7.92995 8.32026 7.92857C8.54892 7.93075 8.77704 7.90558 9 7.85357L9.84706 9.81428C9.43954 10.1105 9.10723 10.5024 8.87797 10.9573C8.64872 11.4121 8.52919 11.9166 8.52941 12.4286C8.52844 12.9941 8.67658 13.5493 8.95817 14.0357L6.01961 16.7143C5.47764 16.2949 4.81643 16.0691 4.13726 16.0714C3.51677 16.0714 2.91021 16.2599 2.39429 16.6131C1.87837 16.9663 1.47626 17.4683 1.23881 18.0557C1.00136 18.643 0.939231 19.2893 1.06028 19.9128C1.18133 20.5363 1.48013 21.109 1.91888 21.5586C2.35764 22.0081 2.91664 22.3142 3.52521 22.4382C4.13378 22.5623 4.76457 22.4986 5.33783 22.2553C5.91109 22.012 6.40106 21.6001 6.74579 21.0715C7.09051 20.5429 7.27451 19.9214 7.27451 19.2857C7.27549 18.7202 7.12735 18.1649 6.84575 17.6786L9.78431 15C10.3549 15.4385 11.0543 15.6647 11.7671 15.6413C12.48 15.6179 13.1638 15.3464 13.7059 14.8714L16.383 17.0036C16.168 17.4462 16.057 17.9342 16.0588 18.4286C16.0588 19.0643 16.2428 19.6857 16.5875 20.2143C16.9323 20.7429 17.4222 21.1549 17.9955 21.3982C18.5688 21.6415 19.1996 21.7051 19.8081 21.5811C20.4167 21.4571 20.9757 21.1509 21.4145 20.7014C21.8532 20.2519 22.152 19.6792 22.2731 19.0556C22.3941 18.4321 22.332 17.7859 22.0945 17.1985C21.8571 16.6112 21.455 16.1092 20.939 15.756C20.4231 15.4028 19.8166 15.2143 19.1961 15.2143ZM19.1961 7.92857C19.5684 7.92857 19.9323 8.04168 20.2419 8.25359C20.5514 8.4655 20.7927 8.76671 20.9351 9.11911C21.0776 9.47151 21.1149 9.85928 21.0423 10.2334C20.9696 10.6075 20.7904 10.9511 20.5271 11.2208C20.2638 11.4906 19.9284 11.6742 19.5633 11.7487C19.1982 11.8231 18.8197 11.7849 18.4757 11.6389C18.1318 11.4929 17.8378 11.2457 17.631 10.9286C17.4241 10.6114 17.3137 10.2386 17.3137 9.85714C17.3165 9.34652 17.5157 8.85761 17.8681 8.49654C18.2205 8.13547 18.6977 7.93138 19.1961 7.92857ZM6.43791 4.71428C6.43791 4.33285 6.54831 3.95998 6.75514 3.64282C6.96198 3.32567 7.25596 3.07848 7.59992 2.93251C7.94387 2.78654 8.32235 2.74835 8.68749 2.82277C9.05263 2.89718 9.38804 3.08086 9.65129 3.35058C9.91454 3.62029 10.0938 3.96393 10.1664 4.33804C10.2391 4.71214 10.2018 5.09991 10.0593 5.45231C9.91686 5.80471 9.67559 6.10592 9.36604 6.31783C9.05649 6.52974 8.69256 6.64285 8.32026 6.64285C7.82188 6.64004 7.34469 6.43595 6.99227 6.07488C6.63986 5.71381 6.44066 5.2249 6.43791 4.71428ZM4.13726 21.2143C3.76496 21.2143 3.40103 21.1012 3.09148 20.8893C2.78193 20.6773 2.54066 20.3761 2.39819 20.0237C2.25572 19.6713 2.21844 19.2836 2.29107 18.9095C2.3637 18.5354 2.54298 18.1917 2.80623 17.922C3.06948 17.6523 3.40489 17.4686 3.77003 17.3942C4.13517 17.3198 4.51365 17.358 4.8576 17.5039C5.20156 17.6499 5.49554 17.8971 5.70238 18.2143C5.90921 18.5314 6.01961 18.9043 6.01961 19.2857C6.01686 19.7963 5.81766 20.2852 5.46525 20.6463C5.11283 21.0074 4.63564 21.2115 4.13726 21.2143ZM11.6667 14.3571C11.2944 14.3571 10.9304 14.244 10.6209 14.0321C10.3113 13.8202 10.0701 13.519 9.9276 13.1666C9.78513 12.8142 9.74785 12.4264 9.82048 12.0523C9.89311 11.6782 10.0724 11.3346 10.3356 11.0649C10.5989 10.7951 10.9343 10.6115 11.2994 10.5371C11.6646 10.4626 12.0431 10.5008 12.387 10.6468C12.731 10.7928 13.0249 11.04 13.2318 11.3571C13.4386 11.6743 13.549 12.0471 13.549 12.4286C13.5463 12.9392 13.3471 13.4281 12.9947 13.7892C12.6422 14.1502 12.1651 14.3543 11.6667 14.3571ZM19.1961 20.3571C18.9219 20.3571 18.6522 20.2958 18.4054 20.1788L18.156 20.4508L18.1093 20.4894C18.0537 20.5285 17.9876 20.5494 17.92 20.5494C17.8524 20.5494 17.7863 20.5285 17.7307 20.4894L17.684 20.4508L17.646 20.4034C17.6076 20.3468 17.587 20.2797 17.587 20.211C17.587 20.1423 17.6076 20.0752 17.646 20.0186L17.684 19.9712L17.8627 19.7898C17.6898 19.6121 17.5516 19.4007 17.457 19.1666C17.3145 18.8142 17.2773 18.4264 17.3499 18.0523C17.3939 17.8257 17.477 17.6103 17.5942 17.4157C17.5881 17.39 17.585 17.3635 17.585 17.3367C17.585 17.268 17.6056 17.2009 17.644 17.1443L17.682 17.0969L17.7287 17.0576L17.7793 17.0285C17.8277 17.0059 17.8807 16.9954 17.9338 16.9979C18.1856 16.7647 18.4948 16.6051 18.8288 16.5371C19.194 16.4626 19.5725 16.5008 19.9164 16.6468C20.1509 16.7463 20.3622 16.8929 20.5385 17.0766L20.5607 17.0576C20.6164 17.0184 20.6826 16.9974 20.7503 16.9974C20.8181 16.9974 20.8843 17.0184 20.94 17.0576L20.986 17.0969L21.0247 17.1436C21.0632 17.2003 21.0839 17.2675 21.0839 17.3364C21.0839 17.4052 21.0632 17.4725 21.0247 17.5291L20.986 17.5758L20.9166 17.6463C21.0228 17.8915 21.0784 18.1579 21.0784 18.4286C21.076 18.8715 20.9259 19.2981 20.6561 19.639L20.9847 19.9725L21.0227 20.02C21.0611 20.0765 21.0817 20.1436 21.0817 20.2124C21.0817 20.2811 21.0611 20.3482 21.0227 20.4047L20.9847 20.4522L20.938 20.4915C20.8823 20.5305 20.8163 20.5514 20.7487 20.5514C20.681 20.5514 20.615 20.5305 20.5593 20.4915L20.5133 20.4522L20.1678 20.0757C19.8771 20.2565 19.5417 20.3552 19.1961 20.3571Z" fill="#363636"/>
</svg>
