<svg width="24" height="24" viewBox="0 0 24 24" fill="none" xmlns="http://www.w3.org/2000/svg">
<path d="M6.62406 7.71443C6.45856 7.71443 6.29985 7.78017 6.18283 7.89719C6.0658 8.01421 6.00006 8.17293 6.00006 8.33842V8.37614C6.00006 8.72071 6.27949 9.00014 6.62406 9.00014H11.3761C11.5416 9.00014 11.7003 8.9344 11.8173 8.81737C11.9343 8.70035 12.0001 8.54163 12.0001 8.37614V8.33842C12.0001 8.17293 11.9343 8.01421 11.8173 7.89719C11.7003 7.78017 11.5416 7.71443 11.3761 7.71443H6.62406ZM6.62406 11.143C6.45856 11.143 6.29985 11.2087 6.18283 11.3258C6.0658 11.4428 6.00006 11.6015 6.00006 11.767V11.8047C6.00006 12.1493 6.27949 12.4287 6.62406 12.4287H15.6618C15.8273 12.4287 15.986 12.363 16.103 12.2459C16.22 12.1289 16.2858 11.9702 16.2858 11.8047V11.767C16.2858 11.6015 16.22 11.4428 16.103 11.3258C15.986 11.2087 15.8273 11.143 15.6618 11.143H6.62406ZM6.00006 15.1956C6.00006 14.851 6.27949 14.5716 6.62406 14.5716H13.0903C13.4349 14.5716 13.7143 14.851 13.7143 15.1956V15.2333C13.7143 15.3988 13.6486 15.5575 13.5316 15.6745C13.4146 15.7915 13.2558 15.8573 13.0903 15.8573H6.62406C6.54211 15.8573 6.46097 15.8411 6.38527 15.8098C6.30956 15.7784 6.24077 15.7325 6.18283 15.6745C6.12488 15.6166 6.07892 15.5478 6.04756 15.4721C6.0162 15.3964 6.00006 15.3152 6.00006 15.2333V15.1956ZM4.93206 3.42871C4.07958 3.42871 3.26201 3.76736 2.65922 4.37015C2.05642 4.97295 1.71777 5.79051 1.71777 6.643V17.3573C1.71777 18.2098 2.05642 19.0273 2.65922 19.6301C3.26201 20.2329 4.07958 20.5716 4.93206 20.5716H19.0715C19.924 20.5716 20.7415 20.2329 21.3443 19.6301C21.9471 19.0273 22.2858 18.2098 22.2858 17.3573V6.643C22.2858 5.79051 21.9471 4.97295 21.3443 4.37015C20.7415 3.76736 19.924 3.42871 19.0715 3.42871H4.93206ZM3.00349 6.643C3.00349 6.13151 3.20668 5.64097 3.56835 5.27929C3.93003 4.91761 4.42057 4.71443 4.93206 4.71443H19.0715C19.583 4.71443 20.0735 4.91761 20.4352 5.27929C20.7969 5.64097 21.0001 6.13151 21.0001 6.643V17.3573C21.0001 17.8688 20.7969 18.3593 20.4352 18.721C20.0735 19.0827 19.583 19.2859 19.0715 19.2859H4.93292C4.42143 19.2859 3.93089 19.0827 3.56921 18.721C3.20753 18.3593 3.00435 17.8688 3.00435 17.3573V6.643H3.00349Z" fill="#363636"/>
<path d="M21.8609 11.9696L23.0304 13.1391L21.8609 11.9696ZM21.8609 11.9696C21.8609 11.9695 21.8608 11.9695 21.8607 11.9694L21.8609 11.9696ZM20.8021 11.9696L19.8874 12.8843L19.7106 13.0611L19.8874 13.2379L21.7621 15.1126L21.9389 15.2894L22.1157 15.1126L23.0304 14.1979L20.8021 11.9696ZM20.8021 11.9696L20.8023 11.9694L20.8021 11.9696ZM23.1929 13.9551C23.1553 14.0458 23.1001 14.1283 23.0306 14.1977L23.1929 13.9551ZM23.1929 13.9551C23.2306 13.8642 23.25 13.7668 23.25 13.6685M23.1929 13.9551L23.25 13.6685M23.25 13.6685C23.25 13.5701 23.2306 13.4728 23.1929 13.3819M23.25 13.6685L23.1929 13.3819M23.1929 13.3819C23.1553 13.2912 23.1001 13.2087 23.0306 13.1393L23.1929 13.3819ZM21.5807 15.6476L21.7576 15.4708L21.5808 15.294L19.706 13.4192L19.5292 13.2425L19.3525 13.4192L13.8982 18.8735C13.8019 18.9698 13.75 19.0932 13.75 19.2302V20.75C13.75 21.0281 13.9719 21.25 14.25 21.25H15.7698C15.8943 21.25 16.0275 21.203 16.1252 21.0981L21.5807 15.6476Z" fill="#363636" stroke="white" stroke-width="0.5"/>
</svg>
