<?xml version="1.0" encoding="utf-8"?>
<svg xmlns="http://www.w3.org/2000/svg" viewBox="90 90.0001 33.9705 33.9695" width="33.9705px" height="33.9695px">
    <ellipse style="fill: rgb(216, 216, 216); stroke: rgb(0, 0, 0);" cx="106.985" cy="106.985" rx="2.42" ry="2.42"/>
    <path d="M 118.823 103.813 L 112.735 111.146 C 112.431 111.513 112.401 111.993 112.666 112.216 C 112.934 112.437 113.401 112.318 113.706 111.953 L 119.794 104.618 L 120.663 105.34 C 120.881 105.521 121.287 105.25 121.304 104.915 L 121.485 101.938 C 121.494 101.731 121.343 101.606 121.141 101.652 L 118.249 102.38 C 117.923 102.457 117.735 102.91 117.949 103.087 L 118.823 103.813 Z" fill="#363636" style="transform-origin: 116.985px 106.985px;" transform="matrix(0.642787, 0.766045, -0.766045, 0.642787, 0.000106339958, 0.000039044211)"/>
    <path d="M 98.822 103.813 L 92.734 111.146 C 92.43 111.512 92.4 111.993 92.667 112.215 C 92.934 112.437 93.401 112.318 93.705 111.952 L 99.793 104.618 L 100.662 105.34 C 100.88 105.521 101.286 105.25 101.302 104.915 L 101.485 101.939 C 101.492 101.731 101.342 101.607 101.14 101.652 L 98.249 102.38 C 97.922 102.457 97.735 102.91 97.949 103.087 L 98.822 103.813 Z" fill="#363636" style="transform-origin: 96.985px 106.985px;" transform="matrix(-0.642788, -0.766044, 0.766044, -0.642788, 0.00002846933, -0.000465523712)"/>
    <path d="M 108.822 113.813 L 102.734 121.146 C 102.43 121.513 102.4 121.993 102.665 122.216 C 102.933 122.437 103.4 122.318 103.705 121.953 L 109.793 114.618 L 110.662 115.34 C 110.88 115.521 111.286 115.25 111.303 114.915 L 111.484 111.938 C 111.493 111.731 111.342 111.606 111.14 111.652 L 108.248 112.38 C 107.922 112.457 107.734 112.91 107.948 113.087 L 108.822 113.813 Z" fill="#363636" style="transform-origin: 106.985px 116.985px;" transform="matrix(-0.766045, 0.642787, -0.642787, -0.766045, 0.000232105687, -0.000221289436)"/>
    <path d="M 102.366 111.17 L 96.278 118.503 C 95.974 118.87 95.944 119.35 96.209 119.573 C 96.477 119.794 96.944 119.675 97.249 119.31 L 103.337 111.975 L 104.206 112.697 C 104.424 112.878 104.83 112.607 104.847 112.272 L 105.028 109.295 C 105.037 109.088 104.886 108.963 104.684 109.009 L 101.792 109.737 C 101.466 109.814 101.278 110.267 101.492 110.444 L 102.366 111.17 Z" fill="#363636" style="transform-origin: 100.514px 114.342px;" transform="matrix(-1, -0.000001, 0.000001, -1, 0.000099205283, -0.000106251314)"/>
    <path d="M 115.337 96.171 L 109.249 103.504 C 108.945 103.871 108.915 104.351 109.18 104.574 C 109.448 104.795 109.915 104.676 110.22 104.311 L 116.308 96.976 L 117.177 97.698 C 117.395 97.879 117.801 97.608 117.818 97.273 L 117.999 94.296 C 118.008 94.089 117.857 93.964 117.655 94.01 L 114.763 94.738 C 114.437 94.815 114.249 95.268 114.463 95.445 L 115.337 96.171 Z" fill="#363636" style="transform-origin: 113.5px 99.343px;" transform="matrix(1, 0.000001, -0.000001, 1, 0, 0)"/>
    <path d="M 116.182 110.33 L 110.094 117.664 C 109.79 118.031 109.76 118.511 110.025 118.734 C 110.293 118.955 110.76 118.836 111.065 118.47 L 117.153 111.136 L 118.022 111.857 C 118.24 112.039 118.646 111.768 118.663 111.433 L 118.844 108.455 C 118.853 108.249 118.702 108.124 118.5 108.17 L 115.608 108.898 C 115.282 108.975 115.094 109.428 115.308 109.604 L 116.182 110.33 Z" fill="#363636" style="transform-origin: 114.345px 113.5px;" transform="matrix(-0.000002, 1, -1, -0.000002, -0.000229910708, 0.000001220702)"/>
    <path d="M 101.179 97.327 L 95.09 104.66 C 94.787 105.027 94.757 105.507 95.022 105.73 C 95.29 105.95 95.757 105.831 96.062 105.467 L 102.15 98.132 L 103.019 98.854 C 103.236 99.035 103.643 98.764 103.66 98.429 L 103.84 95.452 C 103.849 95.245 103.699 95.12 103.497 95.166 L 100.605 95.894 C 100.279 95.971 100.09 96.424 100.305 96.601 L 101.179 97.327 Z" fill="#363636" style="transform-origin: 99.342px 100.498px;" transform="matrix(0.000002, -1, 1, 0.000002, 0.000004543364, 0.000204658111)"/>
    <path d="M 108.822 93.813 L 102.734 101.146 C 102.43 101.513 102.4 101.993 102.665 102.216 C 102.933 102.436 103.4 102.317 103.705 101.953 L 109.793 94.618 L 110.662 95.34 C 110.88 95.521 111.286 95.25 111.303 94.915 L 111.484 91.938 C 111.493 91.731 111.342 91.606 111.14 91.652 L 108.248 92.38 C 107.922 92.457 107.734 92.91 107.948 93.087 L 108.822 93.813 Z" fill="#363636" style="transform-origin: 106.985px 96.984px;" transform="matrix(0.766046, -0.642786, 0.642786, 0.766046, -0.000005759307, 0.000042605438)"/>
</svg>
